<svg width="820" height="480" viewBox="0 0 820 480" fill="none" xmlns="http://www.w3.org/2000/svg">
<g clip-path="url(#clip0)">
<g clip-path="url(#clip1)">
<path d="M79.6903 82.6658L97.0058 63.6206C97.0058 63.6206 116.053 33.6923 129.905 41.8545C143.758 50.0168 109.992 69.0621 109.992 69.0621L92.6769 98.9903L79.6903 82.6658Z" fill="#BE7C5E"/>
<path d="M25.1465 451.781C25.1465 451.781 12.1598 478.082 21.6834 479.896C31.2069 481.71 77.9588 484.43 78.8246 481.709C79.6904 478.989 86.6165 469.92 81.4219 466.292C76.2273 462.664 55.4486 459.944 55.4486 459.944L48.5224 452.688L25.1465 451.781Z" fill="#2F2E41"/>
<path d="M18.2202 195.124C18.2202 195.124 -9.48461 231.4 13.0255 268.584L18.2202 331.161C18.2202 331.161 8.69664 417.319 20.8175 446.34L22.5491 456.316H52.8512L45.0592 380.135C45.0592 380.135 45.925 371.066 48.5223 369.252C51.1196 367.438 93.5427 269.491 93.5427 269.491C93.5427 269.491 86.6165 255.887 89.2138 253.166C91.8111 250.446 86.6165 196.031 84.0192 194.217C81.4218 192.403 18.2202 195.124 18.2202 195.124Z" fill="#131227"/>
<path d="M67.5695 443.619L71.0325 464.478L37.2676 462.665L41.5965 439.991L67.5695 443.619Z" fill="#A0616A"/>
<path d="M61.509 73.5967C75.8537 73.5967 87.4823 61.4155 87.4823 46.3892C87.4823 31.3629 75.8537 19.1816 61.509 19.1816C47.1644 19.1816 35.5358 31.3629 35.5358 46.3892C35.5358 61.4155 47.1644 73.5967 61.509 73.5967Z" fill="#BE7C5E"/>
<path d="M38.1331 50.9238L35.5358 83.5729L63.2406 97.1766C63.2406 97.1766 58.4788 66.7949 61.9419 58.6326L38.1331 50.9238Z" fill="#BE7C5E"/>
<path d="M66.7037 95.3627L64.1063 84.4797L28.6095 70.876C28.6095 70.876 25.1464 70.876 26.0122 77.2244C26.878 83.5728 26.878 82.6659 26.878 82.6659C26.878 82.6659 14.7571 88.1074 13.8913 97.1766C13.0256 106.246 -0.826843 108.967 0.0389317 122.57C0.904706 136.174 5.23358 143.429 5.23358 143.429C5.23358 143.429 0.904703 154.312 7.83091 160.661C7.83091 160.661 14.7571 173.358 11.294 182.427C7.83091 191.496 3.50206 206.914 13.0256 204.193C22.5491 201.472 88.3481 196.938 88.3481 196.938C88.3481 196.938 97.8716 159.754 87.4823 146.15C87.4823 146.15 87.4823 137.988 79.6903 121.663C71.8984 105.339 66.7037 95.3627 66.7037 95.3627Z" fill="white"/>
<path d="M20.8175 197.844C20.8175 197.844 32.0726 247.725 45.925 253.166C45.925 253.166 48.5223 289.443 63.2405 287.629C77.9587 285.815 63.2405 253.166 63.2405 253.166L46.7908 190.589L20.8175 197.844Z" fill="#BE7C5E"/>
<path d="M64.9722 98.0836C64.9722 98.0836 77.9588 76.3175 81.4219 79.9452C84.885 83.5728 102.201 94.4559 101.335 101.711C100.469 108.967 92.677 108.967 92.677 108.967L74.4957 123.477L64.9722 98.0836Z" fill="white"/>
<path d="M83.1534 260.422L93.5427 268.245L100.469 345.672C100.469 345.672 75.3614 450.874 68.4352 451.781C61.509 452.688 32.9384 452.688 33.8042 449.968C34.67 447.247 38.9988 436.364 38.9988 433.643C38.9988 430.922 48.0284 409.164 48.0284 409.164L59.7775 358.369L57.1801 318.464L83.1534 260.422Z" fill="#131227"/>
<path d="M70.1667 457.223C70.1667 457.223 33.8041 445.433 32.0726 448.154C30.341 450.874 18.7913 478.296 34.9555 481.363C51.1197 484.43 109.127 489.872 109.127 481.71C109.127 473.547 107.395 468.106 102.2 468.106C97.0058 468.106 73.6298 456.316 71.8983 453.595C70.1667 450.874 70.1667 457.223 70.1667 457.223Z" fill="#2F2E41"/>
<path d="M36.8809 48.1776C35.7996 45.8466 38.1968 43.3096 40.3495 44.5869L40.3952 44.6145C41.1497 45.0946 41.7524 45.797 42.1281 46.6339C42.5038 47.4708 42.6358 48.4051 42.5077 49.3201C45.6298 46.0568 43.3288 39.5126 46.7022 36.5363C48.2636 35.1588 50.7982 34.8557 51.6004 32.8892C52.0673 31.7444 51.7498 30.3875 52.1615 29.2196C52.7727 27.4854 54.7254 26.7613 56.4708 26.4886C61.9598 25.6312 67.5109 27.0902 72.8857 28.5379C74.8621 29.0703 76.9402 29.6618 78.3798 31.1769C79.896 32.7726 80.4236 35.0913 81.3533 37.1212C82.283 39.1512 88.3807 38.9677 90.5125 38.6805C91.2536 36.4753 85.7803 36.3091 85.3335 34.0186C84.1123 27.7581 88.365 21.1009 86.2787 15.0964C85.0216 11.4782 81.7376 9.08317 78.4313 7.40095C69.2464 2.77574 58.7614 1.8385 48.9611 4.76666C47.9636 4.99733 47.0314 5.46947 46.2393 6.14526C44.9811 7.37574 44.7478 9.35138 43.9098 10.9264C42.0005 14.5152 37.4723 15.3681 34.4189 17.9466C29.7946 21.8518 29.2733 28.9032 29.1236 35.1234C29.0482 38.2559 28.9949 41.5108 30.2198 44.3696C31.4446 47.2284 34.3471 49.5578 37.2834 48.959C37.1444 48.7225 37.011 48.4581 36.8809 48.1776Z" fill="#2F2E41"/>
<path d="M41.3981 106.921C38.0467 104.485 34.0187 103.281 29.9444 103.498C25.8701 103.714 21.9794 105.34 18.8809 108.12C12.914 113.431 6.49515 121.041 6.96514 128.919C7.83092 143.429 13.0256 203.286 19.9518 204.193C26.878 205.1 51.9855 197.845 51.9855 193.31C51.9855 188.775 45.9251 183.334 45.9251 183.334L53.2835 137.085C55.1019 125.656 50.7633 113.98 41.7866 107.211C41.658 107.114 41.5285 107.017 41.3981 106.921Z" fill="white"/>
<g opacity="0.5">
<path opacity="0.5" d="M179.443 112.356C204.064 112.356 224.023 91.449 224.023 65.6584C224.023 39.8678 204.064 18.9604 179.443 18.9604C154.822 18.9604 134.864 39.8678 134.864 65.6584C134.864 91.449 154.822 112.356 179.443 112.356Z" fill="url(#paint0_linear)"/>
</g>
<path d="M179.53 111.074C203.631 111.074 223.169 90.6069 223.169 65.36C223.169 40.1131 203.631 19.6465 179.53 19.6465C155.428 19.6465 135.89 40.1131 135.89 65.36C135.89 90.6069 155.428 111.074 179.53 111.074Z" fill="#F5F5F5"/>
<path d="M203.537 69.8649C203.537 85.0711 193.107 92.5543 179.565 92.5543C166.023 92.5543 154.498 85.0711 154.498 69.8649C154.498 54.6588 165.475 42.3318 179.017 42.3318C192.559 42.3318 203.537 54.6588 203.537 69.8649Z" fill="#333333"/>
<path d="M179.565 111.254C188.092 111.268 196.435 108.653 203.552 103.734C201.944 94.5288 195.825 94.0039 195.825 94.0039H162.083C162.083 94.0039 156.308 94.5006 154.505 102.969C161.841 108.375 170.595 111.269 179.565 111.254V111.254Z" fill="#014AAD"/>
<path opacity="0.1" d="M172.309 82.7747H185.806V94.4794C185.806 96.2497 185.135 97.9475 183.94 99.1993C182.745 100.451 181.124 101.154 179.434 101.154H178.681C176.991 101.154 175.37 100.451 174.175 99.1993C172.98 97.9475 172.309 96.2497 172.309 94.4794V82.7747H172.309Z" fill="black"/>
<path d="M173.525 82.2512H184.59C184.913 82.2512 185.222 82.3854 185.45 82.6242C185.678 82.863 185.806 83.1869 185.806 83.5247V93.956C185.806 95.7263 185.135 97.4241 183.94 98.6759C182.745 99.9277 181.124 100.631 179.434 100.631H178.681C176.991 100.631 175.37 99.9277 174.175 98.6759C172.98 97.4241 172.309 95.7263 172.309 93.956V83.5247C172.309 83.1869 172.437 82.863 172.665 82.6242C172.893 82.3854 173.202 82.2512 173.525 82.2512V82.2512Z" fill="#FDA57D"/>
<path opacity="0.1" d="M172.334 88.1132C176.684 89.8157 181.472 89.8296 185.831 88.1523V86.4155H172.334V88.1132Z" fill="black"/>
<path d="M179.107 89.0598C189.792 89.0598 198.453 79.9869 198.453 68.795C198.453 57.6031 189.792 48.5303 179.107 48.5303C168.423 48.5303 159.762 57.6031 159.762 68.795C159.762 79.9869 168.423 89.0598 179.107 89.0598Z" fill="#FDA57D"/>
<path opacity="0.1" d="M156.81 70.1198C156.81 70.1198 168.856 68.5902 177.983 56.3532C177.983 56.3532 190.03 70.2473 198.426 68.7176C198.426 68.7176 203.293 63.364 198.426 58.0103C193.559 52.6567 189.786 45.9008 183.337 46.7931C176.888 47.6854 168.978 48.0678 165.571 51.2545C162.164 54.4412 156.81 70.1198 156.81 70.1198Z" fill="black"/>
<path d="M156.81 69.8649C156.81 69.8649 168.856 68.3353 177.983 56.0983C177.983 56.0983 190.03 69.9924 198.426 68.4628C198.426 68.4628 203.293 63.1091 198.426 57.7554C193.559 52.4018 189.786 45.6459 183.337 46.5382C176.888 47.4305 168.978 47.8129 165.571 50.9996C162.164 54.1863 156.81 69.8649 156.81 69.8649Z" fill="#333333"/>
<path d="M159.754 72.3103C160.748 72.3103 161.554 70.7278 161.554 68.7758C161.554 66.8237 160.748 65.2412 159.754 65.2412C158.76 65.2412 157.955 66.8237 157.955 68.7758C157.955 70.7278 158.76 72.3103 159.754 72.3103Z" fill="#FDA57D"/>
<path d="M198.45 72.3103C199.444 72.3103 200.25 70.7278 200.25 68.7758C200.25 66.8237 199.444 65.2412 198.45 65.2412C197.456 65.2412 196.651 66.8237 196.651 68.7758C196.651 70.7278 197.456 72.3103 198.45 72.3103Z" fill="#FDA57D"/>
<g opacity="0.5">
<path opacity="0.5" d="M368.238 115.687C392.859 115.687 412.818 94.7798 412.818 68.9892C412.818 43.1986 392.859 22.2913 368.238 22.2913C343.618 22.2913 323.659 43.1986 323.659 68.9892C323.659 94.7798 343.618 115.687 368.238 115.687Z" fill="url(#paint1_linear)"/>
</g>
<path d="M368.325 114.404C392.427 114.404 411.965 93.9377 411.965 68.6908C411.965 43.4439 392.427 22.9773 368.325 22.9773C344.223 22.9773 324.685 43.4439 324.685 68.6908C324.685 93.9377 344.223 114.404 368.325 114.404Z" fill="#F5F5F5"/>
<path d="M368.36 114.585C376.887 114.599 385.23 111.984 392.348 107.065C390.74 97.8596 384.62 97.3347 384.62 97.3347H350.878C350.878 97.3347 345.104 97.8314 343.3 106.3C350.636 111.705 359.39 114.6 368.36 114.585V114.585Z" fill="#014AAD"/>
<path d="M367.903 89.7925C379.536 89.7925 388.967 79.9137 388.967 67.7275C388.967 55.5414 379.536 45.6626 367.903 45.6626C356.269 45.6626 346.839 55.5414 346.839 67.7275C346.839 79.9137 356.269 89.7925 367.903 89.7925Z" fill="#72351C"/>
<path opacity="0.1" d="M361.104 86.1057H374.601V97.8105C374.601 99.5808 373.93 101.279 372.735 102.53C371.54 103.782 369.919 104.485 368.229 104.485H367.476C365.786 104.485 364.166 103.782 362.971 102.53C361.776 101.279 361.104 99.5808 361.104 97.8105V86.1057Z" fill="black"/>
<path d="M362.32 85.582H373.385C373.708 85.582 374.017 85.7162 374.245 85.955C374.473 86.1938 374.601 86.5177 374.601 86.8555V97.2868C374.601 99.0571 373.93 100.755 372.735 102.007C371.54 103.258 369.919 103.962 368.229 103.962H367.476C365.786 103.962 364.166 103.258 362.971 102.007C361.776 100.755 361.104 99.0571 361.104 97.2868V86.8555C361.104 86.5177 361.232 86.1938 361.46 85.955C361.688 85.7162 361.998 85.582 362.32 85.582Z" fill="#FDA57D"/>
<path opacity="0.1" d="M361.129 91.444C365.479 93.1465 370.267 93.1604 374.626 91.4831V89.7463H361.129V91.444Z" fill="black"/>
<path d="M367.903 92.3909C378.587 92.3909 387.248 83.318 387.248 72.1261C387.248 60.9342 378.587 51.8613 367.903 51.8613C357.218 51.8613 348.557 60.9342 348.557 72.1261C348.557 83.318 357.218 92.3909 367.903 92.3909Z" fill="#FDA57D"/>
<path opacity="0.1" d="M354.123 53.693C354.123 53.693 362.276 71.0287 385.274 60.9587L379.92 52.1634L370.429 48.5942L354.123 53.693Z" fill="black"/>
<path d="M354.123 53.4381C354.123 53.4381 362.276 70.7738 385.274 60.7038L379.92 51.9085L370.429 48.3394L354.123 53.4381Z" fill="#72351C"/>
<path d="M354.051 52.2669C354.6 50.4842 355.55 48.8656 356.821 47.5473C360.626 43.6071 366.864 42.7752 370.064 38.2825C370.238 38.6003 370.346 38.9529 370.383 39.3175C370.419 39.682 370.382 40.0505 370.274 40.399C370.165 40.7476 369.989 41.0686 369.755 41.3413C369.521 41.6141 369.236 41.8325 368.916 41.9825C371.978 41.9617 375.535 41.6806 377.268 39.0365C377.696 40.0812 377.833 41.2318 377.661 42.3546C377.49 43.4774 377.018 44.5262 376.301 45.3792C379.018 45.5084 381.917 47.4401 382.093 50.2834C382.21 52.1777 381.076 53.9711 379.59 55.0575C378.046 56.0614 376.329 56.7387 374.536 57.0512C369.371 58.2442 350.68 63.2447 354.051 52.2669Z" fill="#72351C"/>
<path d="M387.247 72.3035H386.735L376.756 81.6086C367.143 76.8923 360.085 81.6086 360.085 81.6086L349.62 72.6859L348.565 72.8248C348.708 78.1434 350.842 83.1896 354.507 86.874C358.172 90.5583 363.072 92.585 368.151 92.5166C373.23 92.4482 378.08 90.29 381.653 86.5081C385.225 82.7263 387.235 77.6242 387.247 72.3035V72.3035ZM367.873 85.1777C364.11 85.1777 361.059 84.3788 361.059 83.3932C361.059 82.4076 364.11 81.6086 367.873 81.6086C371.637 81.6086 374.688 82.4076 374.688 83.3932C374.688 84.3788 371.637 85.1777 367.873 85.1777V85.1777Z" fill="#72351C"/>
<path d="M348.55 75.6414C349.543 75.6414 350.349 74.0589 350.349 72.1068C350.349 70.1547 349.543 68.5723 348.55 68.5723C347.556 68.5723 346.75 70.1547 346.75 72.1068C346.75 74.0589 347.556 75.6414 348.55 75.6414Z" fill="#FDA57D"/>
<path d="M387.246 75.6414C388.239 75.6414 389.045 74.0589 389.045 72.1068C389.045 70.1547 388.239 68.5723 387.246 68.5723C386.252 68.5723 385.446 70.1547 385.446 72.1068C385.446 74.0589 386.252 75.6414 387.246 75.6414Z" fill="#FDA57D"/>
<g opacity="0.5">
<path opacity="0.5" d="M273.846 192.301C298.467 192.301 318.426 171.394 318.426 145.603C318.426 119.813 298.467 98.9053 273.846 98.9053C249.226 98.9053 229.267 119.813 229.267 145.603C229.267 171.394 249.226 192.301 273.846 192.301Z" fill="url(#paint2_linear)"/>
</g>
<path d="M273.846 191.062C297.948 191.062 317.486 170.595 317.486 145.348C317.486 120.101 297.948 99.6348 273.846 99.6348C249.745 99.6348 230.206 120.101 230.206 145.348C230.206 170.595 249.745 191.062 273.846 191.062Z" fill="#F5F5F5"/>
<path d="M256.814 145.755C256.814 145.755 251.866 171.288 249.166 169.874C249.166 169.874 275.21 193.438 298.205 169.874C298.205 169.874 294.156 151.882 288.307 145.755H256.814Z" fill="#333333"/>
<path d="M273.968 191.199C282.495 191.213 290.838 188.598 297.956 183.679C296.348 174.474 290.228 173.949 290.228 173.949H256.486C256.486 173.949 250.711 174.445 248.908 182.914C256.244 188.319 264.998 191.214 273.968 191.199V191.199Z" fill="#014AAD"/>
<path d="M273.51 164.606C284.195 164.606 292.856 155.533 292.856 144.341C292.856 133.15 284.195 124.077 273.51 124.077C262.826 124.077 254.165 133.15 254.165 144.341C254.165 155.533 262.826 164.606 273.51 164.606Z" fill="#333333"/>
<path opacity="0.1" d="M266.712 162.719H280.209V174.424C280.209 176.195 279.537 177.892 278.342 179.144C277.147 180.396 275.527 181.099 273.837 181.099H273.084C271.394 181.099 269.773 180.396 268.578 179.144C267.383 177.892 266.712 176.195 266.712 174.424V162.719V162.719Z" fill="black"/>
<path d="M267.928 162.196H278.993C279.316 162.196 279.625 162.33 279.853 162.569C280.081 162.808 280.209 163.132 280.209 163.469V173.901C280.209 175.671 279.537 177.369 278.342 178.62C277.147 179.872 275.527 180.575 273.837 180.575H273.084C271.394 180.575 269.773 179.872 268.578 178.62C267.383 177.369 266.712 175.671 266.712 173.901V163.469C266.712 163.132 266.84 162.808 267.068 162.569C267.296 162.33 267.605 162.196 267.928 162.196H267.928Z" fill="#BE7C5E"/>
<path opacity="0.1" d="M266.737 168.058C271.087 169.761 275.875 169.774 280.234 168.097V166.36H266.737V168.058Z" fill="black"/>
<path d="M273.51 169.005C284.195 169.005 292.856 159.932 292.856 148.74C292.856 137.548 284.195 128.475 273.51 128.475C262.826 128.475 254.165 137.548 254.165 148.74C254.165 159.932 262.826 169.005 273.51 169.005Z" fill="#BE7C5E"/>
<path d="M255.015 141.043H291.906C291.906 141.043 288.757 125.438 274.81 126.433C260.864 127.428 255.015 141.043 255.015 141.043Z" fill="#333333"/>
<path d="M254.565 151.41C255.559 151.41 256.365 149.828 256.365 147.876C256.365 145.924 255.559 144.341 254.565 144.341C253.571 144.341 252.765 145.924 252.765 147.876C252.765 149.828 253.571 151.41 254.565 151.41Z" fill="#BE7C5E"/>
<path d="M292.356 151.41C293.35 151.41 294.156 149.828 294.156 147.876C294.156 145.924 293.35 144.341 292.356 144.341C291.362 144.341 290.556 145.924 290.556 147.876C290.556 149.828 291.362 151.41 292.356 151.41Z" fill="#BE7C5E"/>
<path opacity="0.1" d="M255.015 141.566H291.906C291.906 141.566 288.757 125.962 274.81 126.957C260.864 127.952 255.015 141.566 255.015 141.566Z" fill="black"/>
<path d="M273.846 103.04C281.883 103.04 289.738 105.536 296.42 110.213C303.102 114.89 308.31 121.538 311.386 129.315C314.461 137.092 315.266 145.65 313.698 153.907C312.13 162.163 308.26 169.747 302.578 175.7C296.895 181.653 289.655 185.706 281.773 187.349C273.891 188.991 265.721 188.148 258.297 184.927C250.872 181.705 244.526 176.25 240.062 169.25C235.597 162.251 233.214 154.021 233.214 145.603C233.214 140.014 234.265 134.479 236.307 129.315C238.349 124.151 241.342 119.459 245.115 115.506C248.888 111.554 253.367 108.419 258.297 106.28C263.227 104.141 268.51 103.04 273.846 103.04V103.04ZM273.846 92.5288C263.825 92.5288 254.029 95.6416 245.697 101.473C237.365 107.305 230.871 115.594 227.036 125.293C223.201 134.991 222.198 145.662 224.153 155.958C226.108 166.253 230.934 175.71 238.019 183.133C245.105 190.555 254.133 195.61 263.962 197.658C273.79 199.706 283.977 198.655 293.236 194.638C302.494 190.621 310.407 183.818 315.974 175.09C321.541 166.362 324.513 156.1 324.513 145.603C324.498 131.532 319.155 118.041 309.656 108.092C300.158 98.1416 287.279 92.5447 273.846 92.5288V92.5288Z" fill="#CECCCC"/>
<path d="M278.222 80.1213H266.345V93.2177H278.222V80.1213Z" fill="#CECCCC"/>
<path d="M299.404 85.427L292.964 96.6528L303.145 103.061L309.584 91.8349L299.404 85.427Z" fill="#CECCCC"/>
<path d="M324.703 106.875L313.768 113.224L319.526 124.106L330.461 117.757L324.703 106.875Z" fill="#CECCCC"/>
<path d="M320.235 166.481L313.941 177.032L324.544 183.972L330.838 173.421L320.235 166.481Z" fill="#CECCCC"/>
<path d="M222.99 106.875L217.231 117.757L228.166 124.106L233.924 113.224L222.99 106.875Z" fill="#CECCCC"/>
<path d="M227.457 166.481L216.855 173.421L223.149 183.972L233.751 177.032L227.457 166.481Z" fill="#CECCCC"/>
<path d="M248.289 85.4271L238.108 91.835L244.547 103.061L254.728 96.6529L248.289 85.4271Z" fill="#CECCCC"/>
<path d="M278.222 197.989H266.345V211.085H278.222V197.989Z" fill="#CECCCC"/>
<path d="M303.145 188.146L292.964 194.553L299.404 205.779L309.584 199.371L303.145 188.146Z" fill="#CECCCC"/>
<path d="M244.547 188.146L238.108 199.371L248.289 205.779L254.728 194.553L244.547 188.146Z" fill="#CECCCC"/>
<path d="M224.462 140.365H210.084V151.497H224.462V140.365Z" fill="#CECCCC"/>
<path d="M323.23 151.497H337.608V140.365H323.23V151.497Z" fill="#CECCCC"/>
<path d="M368.238 26.426C376.275 26.426 384.131 28.9222 390.812 33.5992C397.494 38.2761 402.702 44.9235 405.778 52.701C408.853 60.4784 409.658 69.0364 408.09 77.2929C406.522 85.5494 402.652 93.1334 396.97 99.086C391.287 105.039 384.047 109.092 376.165 110.735C368.283 112.377 360.114 111.534 352.689 108.313C345.264 105.091 338.918 99.6356 334.454 92.6362C329.989 85.6367 327.606 77.4075 327.606 68.9893C327.606 57.7008 331.887 46.8747 339.507 38.8925C347.127 30.9103 357.462 26.426 368.238 26.426V26.426ZM368.238 15.9148C358.217 15.9148 348.421 19.0276 340.089 24.8595C331.757 30.6913 325.263 38.9804 321.428 48.6785C317.594 58.3766 316.59 69.0481 318.545 79.3436C320.5 89.639 325.326 99.096 332.412 106.519C339.497 113.941 348.525 118.996 358.354 121.044C368.182 123.092 378.37 122.041 387.628 118.024C396.886 114.007 404.799 107.204 410.366 98.4759C415.934 89.7478 418.905 79.4864 418.905 68.9893C418.89 54.9179 413.547 41.4275 404.048 31.4775C394.55 21.5276 381.671 15.9307 368.238 15.9148V15.9148Z" fill="#CECCCC"/>
<path d="M372.614 3.50732H360.737V16.6037H372.614V3.50732Z" fill="#CECCCC"/>
<path d="M393.796 8.81326L387.357 20.0391L397.537 26.4469L403.977 15.2211L393.796 8.81326Z" fill="#CECCCC"/>
<path d="M419.095 30.2611L408.16 36.6104L413.918 47.492L424.853 41.1427L419.095 30.2611Z" fill="#CECCCC"/>
<path d="M414.627 89.8674L408.333 100.418L418.936 107.359L425.23 96.8074L414.627 89.8674Z" fill="#CECCCC"/>
<path d="M317.382 30.2611L311.624 41.1428L322.558 47.4921L328.317 36.6104L317.382 30.2611Z" fill="#CECCCC"/>
<path d="M321.85 89.8673L311.247 96.8074L317.541 107.358L328.143 100.418L321.85 89.8673Z" fill="#CECCCC"/>
<path d="M342.681 8.81307L332.5 15.2209L338.939 26.4467L349.12 20.0389L342.681 8.81307Z" fill="#CECCCC"/>
<path d="M372.614 121.375H360.737V134.471H372.614V121.375Z" fill="#CECCCC"/>
<path d="M397.539 111.531L387.358 117.939L393.798 129.165L403.978 122.757L397.539 111.531Z" fill="#CECCCC"/>
<path d="M338.939 111.532L332.5 122.758L342.681 129.165L349.12 117.94L338.939 111.532Z" fill="#CECCCC"/>
<path d="M318.854 63.7507H304.477V74.8827H318.854V63.7507Z" fill="#CECCCC"/>
<path d="M417.622 74.8826H432V63.7506H417.622V74.8826Z" fill="#CECCCC"/>
<path d="M179.428 23.1513C179.905 23.1513 180.384 23.16 180.864 23.1774C191.509 23.565 201.583 28.3159 208.918 36.4075C216.253 44.499 220.26 55.2839 220.079 66.4404C219.898 77.5968 215.541 88.2325 207.948 96.0576C200.354 103.883 190.131 108.271 179.479 108.279C179.002 108.279 178.524 108.27 178.044 108.253C167.399 107.865 157.324 103.114 149.99 95.0227C142.655 86.9311 138.647 76.1462 138.829 64.9898C139.01 53.8333 143.367 43.1977 150.96 35.3726C158.553 27.5475 168.776 23.1588 179.428 23.1513V23.1513ZM179.431 12.6401V23.1513L179.431 12.6401C166.147 12.6466 153.397 18.1173 143.927 27.8741C134.456 37.631 129.022 50.8936 128.795 64.8062C128.567 78.7188 133.565 92.1686 142.711 102.259C151.857 112.35 164.421 118.275 177.696 118.758C178.289 118.779 178.888 118.79 179.479 118.79C192.763 118.783 205.512 113.312 214.982 103.555C224.453 93.7979 229.886 80.5353 230.113 66.6228C230.34 52.7104 225.343 39.2609 216.197 29.1704C207.05 19.0798 194.487 13.1553 181.212 12.6726C180.619 12.6511 180.02 12.6401 179.431 12.6401V12.6401Z" fill="#CECCCC"/>
<path d="M174.126 0.000111865L173.692 13.0886L185.562 13.5203L185.996 0.431764L174.126 0.000111865Z" fill="#CECCCC"/>
<path d="M206.99 6.50524L200.183 17.4902L210.145 24.2643L216.952 13.2793L206.99 6.50524Z" fill="#CECCCC"/>
<path d="M231.563 28.8586L220.424 34.8066L225.818 45.891L236.957 39.943L231.563 28.8586Z" fill="#CECCCC"/>
<path d="M225.123 88.2666L218.484 98.5825L228.85 105.904L235.49 95.5878L225.123 88.2666Z" fill="#CECCCC"/>
<path d="M129.911 25.1621L123.796 35.8279L134.514 42.5707L140.629 31.9049L129.911 25.1621Z" fill="#CECCCC"/>
<path d="M132.401 84.8948L121.575 91.4453L127.516 102.219L138.342 95.6682L132.401 84.8948Z" fill="#CECCCC"/>
<path d="M155.905 4.6464L145.518 10.6804L151.582 22.1335L161.968 16.0995L155.905 4.6464Z" fill="#CECCCC"/>
<path d="M207.326 109.297L196.939 115.331L203.003 126.784L213.39 120.75L207.326 109.297Z" fill="#CECCCC"/>
<path d="M148.764 107.167L141.957 118.152L151.919 124.926L158.726 113.941L148.764 107.167Z" fill="#CECCCC"/>
<path d="M130.273 58.6849L115.904 58.1624L115.536 69.2876L129.905 69.8101L130.273 58.6849Z" fill="#CECCCC"/>
<path d="M228.613 73.3998L242.982 73.9224L243.351 62.7971L228.982 62.2746L228.613 73.3998Z" fill="#CECCCC"/>
</g>
<g filter="url(#filter0_d)">
<path d="M386.66 224.16V282H377.18V244.64C377.18 243.147 377.26 241.533 377.42 239.8L359.94 272.64C359.113 274.213 357.847 275 356.14 275H354.62C352.913 275 351.647 274.213 350.82 272.64L333.14 239.68C333.22 240.56 333.287 241.427 333.34 242.28C333.393 243.133 333.42 243.92 333.42 244.64V282H323.94V224.16H332.06C332.54 224.16 332.953 224.173 333.3 224.2C333.647 224.227 333.953 224.293 334.22 224.4C334.513 224.507 334.767 224.68 334.98 224.92C335.22 225.16 335.447 225.48 335.66 225.88L352.98 258C353.433 258.853 353.847 259.733 354.22 260.64C354.62 261.547 355.007 262.48 355.38 263.44C355.753 262.453 356.14 261.507 356.54 260.6C356.94 259.667 357.367 258.773 357.82 257.92L374.9 225.88C375.113 225.48 375.34 225.16 375.58 224.92C375.82 224.68 376.073 224.507 376.34 224.4C376.633 224.293 376.953 224.227 377.3 224.2C377.647 224.173 378.06 224.16 378.54 224.16H386.66ZM454.725 253.08C454.725 257.32 454.018 261.253 452.605 264.88C451.218 268.48 449.245 271.6 446.685 274.24C444.125 276.88 441.045 278.947 437.445 280.44C433.845 281.907 429.845 282.64 425.445 282.64C421.072 282.64 417.085 281.907 413.485 280.44C409.885 278.947 406.792 276.88 404.205 274.24C401.645 271.6 399.658 268.48 398.245 264.88C396.832 261.253 396.125 257.32 396.125 253.08C396.125 248.84 396.832 244.92 398.245 241.32C399.658 237.693 401.645 234.56 404.205 231.92C406.792 229.28 409.885 227.227 413.485 225.76C417.085 224.267 421.072 223.52 425.445 223.52C428.378 223.52 431.138 223.867 433.725 224.56C436.312 225.227 438.685 226.187 440.845 227.44C443.005 228.667 444.938 230.173 446.645 231.96C448.378 233.72 449.845 235.693 451.045 237.88C452.245 240.067 453.152 242.44 453.765 245C454.405 247.56 454.725 250.253 454.725 253.08ZM443.725 253.08C443.725 249.907 443.298 247.067 442.445 244.56C441.592 242.027 440.378 239.88 438.805 238.12C437.232 236.36 435.312 235.013 433.045 234.08C430.805 233.147 428.272 232.68 425.445 232.68C422.618 232.68 420.072 233.147 417.805 234.08C415.565 235.013 413.645 236.36 412.045 238.12C410.472 239.88 409.258 242.027 408.405 244.56C407.552 247.067 407.125 249.907 407.125 253.08C407.125 256.253 407.552 259.107 408.405 261.64C409.258 264.147 410.472 266.28 412.045 268.04C413.645 269.773 415.565 271.107 417.805 272.04C420.072 272.973 422.618 273.44 425.445 273.44C428.272 273.44 430.805 272.973 433.045 272.04C435.312 271.107 437.232 269.773 438.805 268.04C440.378 266.28 441.592 264.147 442.445 261.64C443.298 259.107 443.725 256.253 443.725 253.08ZM511.859 224.16L488.499 282H478.779L455.419 224.16H464.059C464.993 224.16 465.753 224.387 466.339 224.84C466.926 225.293 467.366 225.88 467.659 226.6L481.299 261.88C481.753 263.027 482.179 264.293 482.579 265.68C483.006 267.04 483.406 268.467 483.779 269.96C484.099 268.467 484.446 267.04 484.819 265.68C485.193 264.293 485.606 263.027 486.059 261.88L499.619 226.6C499.833 225.987 500.246 225.427 500.859 224.92C501.499 224.413 502.273 224.16 503.179 224.16H511.859ZM528.646 232.72V248.76H548.886V257.04H528.646V273.4H554.326V282H517.846V224.16H554.326V232.72H528.646ZM612.622 224.16V282H607.102C606.249 282 605.529 281.867 604.942 281.6C604.382 281.307 603.835 280.827 603.302 280.16L573.102 241.6C573.262 243.36 573.342 244.987 573.342 246.48V282H563.862V224.16H569.502C569.955 224.16 570.342 224.187 570.662 224.24C571.009 224.267 571.302 224.347 571.542 224.48C571.809 224.587 572.062 224.76 572.302 225C572.542 225.213 572.809 225.507 573.102 225.88L603.422 264.6C603.342 263.667 603.275 262.747 603.222 261.84C603.169 260.933 603.142 260.093 603.142 259.32V224.16H612.622ZM676.863 253.08C676.863 257.32 676.156 261.213 674.743 264.76C673.329 268.307 671.343 271.36 668.783 273.92C666.223 276.48 663.143 278.467 659.543 279.88C655.943 281.293 651.943 282 647.543 282H625.503V224.16H647.543C651.943 224.16 655.943 224.88 659.543 226.32C663.143 227.733 666.223 229.72 668.783 232.28C671.343 234.813 673.329 237.853 674.743 241.4C676.156 244.947 676.863 248.84 676.863 253.08ZM665.823 253.08C665.823 249.907 665.396 247.067 664.543 244.56C663.716 242.027 662.503 239.893 660.903 238.16C659.329 236.4 657.409 235.053 655.143 234.12C652.903 233.187 650.369 232.72 647.543 232.72H636.303V273.44H647.543C650.369 273.44 652.903 272.973 655.143 272.04C657.409 271.107 659.329 269.773 660.903 268.04C662.503 266.28 663.716 264.147 664.543 261.64C665.396 259.107 665.823 256.253 665.823 253.08ZM741.522 253.08C741.522 257.32 740.815 261.253 739.402 264.88C738.015 268.48 736.042 271.6 733.482 274.24C730.922 276.88 727.842 278.947 724.242 280.44C720.642 281.907 716.642 282.64 712.242 282.64C707.869 282.64 703.882 281.907 700.282 280.44C696.682 278.947 693.589 276.88 691.002 274.24C688.442 271.6 686.455 268.48 685.042 264.88C683.629 261.253 682.922 257.32 682.922 253.08C682.922 248.84 683.629 244.92 685.042 241.32C686.455 237.693 688.442 234.56 691.002 231.92C693.589 229.28 696.682 227.227 700.282 225.76C703.882 224.267 707.869 223.52 712.242 223.52C715.175 223.52 717.935 223.867 720.522 224.56C723.109 225.227 725.482 226.187 727.642 227.44C729.802 228.667 731.735 230.173 733.442 231.96C735.175 233.72 736.642 235.693 737.842 237.88C739.042 240.067 739.949 242.44 740.562 245C741.202 247.56 741.522 250.253 741.522 253.08ZM730.522 253.08C730.522 249.907 730.095 247.067 729.242 244.56C728.389 242.027 727.175 239.88 725.602 238.12C724.029 236.36 722.109 235.013 719.842 234.08C717.602 233.147 715.069 232.68 712.242 232.68C709.415 232.68 706.869 233.147 704.602 234.08C702.362 235.013 700.442 236.36 698.842 238.12C697.269 239.88 696.055 242.027 695.202 244.56C694.349 247.067 693.922 249.907 693.922 253.08C693.922 256.253 694.349 259.107 695.202 261.64C696.055 264.147 697.269 266.28 698.842 268.04C700.442 269.773 702.362 271.107 704.602 272.04C706.869 272.973 709.415 273.44 712.242 273.44C715.069 273.44 717.602 272.973 719.842 272.04C722.109 271.107 724.029 269.773 725.602 268.04C727.175 266.28 728.389 264.147 729.242 261.64C730.095 259.107 730.522 256.253 730.522 253.08ZM781.224 232.72V248.76H801.464V257.04H781.224V273.4H806.904V282H770.424V224.16H806.904V232.72H781.224ZM288.875 356.16L281.835 336.92C281.488 336.067 281.128 335.053 280.755 333.88C280.382 332.707 280.008 331.44 279.635 330.08C279.288 331.44 278.928 332.72 278.555 333.92C278.182 335.093 277.822 336.12 277.475 337L270.475 356.16H288.875ZM307.875 378H299.555C298.622 378 297.862 377.773 297.275 377.32C296.688 376.84 296.248 376.253 295.955 375.56L291.635 363.76H267.675L263.355 375.56C263.142 376.173 262.728 376.733 262.115 377.24C261.502 377.747 260.742 378 259.835 378H251.435L274.195 320.16H285.155L307.875 378ZM332.662 349.24C334.635 349.24 336.355 349 337.822 348.52C339.289 348.013 340.502 347.307 341.462 346.4C342.449 345.467 343.182 344.347 343.662 343.04C344.142 341.707 344.382 340.227 344.382 338.6C344.382 337.053 344.142 335.653 343.662 334.4C343.182 333.147 342.462 332.08 341.502 331.2C340.542 330.32 339.329 329.653 337.862 329.2C336.395 328.72 334.662 328.48 332.662 328.48H324.622V349.24H332.662ZM332.662 320.16C336.529 320.16 339.875 320.613 342.702 321.52C345.529 322.427 347.862 323.693 349.702 325.32C351.542 326.947 352.902 328.893 353.782 331.16C354.689 333.427 355.142 335.907 355.142 338.6C355.142 341.4 354.675 343.973 353.742 346.32C352.809 348.64 351.409 350.64 349.542 352.32C347.675 354 345.329 355.307 342.502 356.24C339.702 357.173 336.422 357.64 332.662 357.64H324.622V378H313.862V320.16H332.662ZM380.873 347.68C382.9 347.68 384.66 347.427 386.153 346.92C387.673 346.413 388.913 345.72 389.873 344.84C390.86 343.933 391.593 342.867 392.073 341.64C392.553 340.413 392.793 339.067 392.793 337.6C392.793 334.667 391.82 332.413 389.873 330.84C387.953 329.267 385.006 328.48 381.033 328.48H374.153V347.68H380.873ZM408.553 378H398.833C396.993 378 395.66 377.28 394.833 375.84L382.673 357.32C382.22 356.627 381.713 356.133 381.153 355.84C380.62 355.547 379.82 355.4 378.753 355.4H374.153V378H363.393V320.16H381.033C384.953 320.16 388.313 320.573 391.113 321.4C393.94 322.2 396.246 323.333 398.033 324.8C399.846 326.267 401.18 328.027 402.033 330.08C402.886 332.107 403.313 334.347 403.313 336.8C403.313 338.747 403.02 340.587 402.433 342.32C401.873 344.053 401.046 345.627 399.953 347.04C398.886 348.453 397.553 349.693 395.953 350.76C394.38 351.827 392.58 352.667 390.553 353.28C391.246 353.68 391.886 354.16 392.473 354.72C393.06 355.253 393.593 355.893 394.073 356.64L408.553 378ZM425.599 328.72V344.76H445.839V353.04H425.599V369.4H451.279V378H414.799V320.16H451.279V328.72H425.599ZM509.575 320.16V378H504.055C503.202 378 502.482 377.867 501.895 377.6C501.335 377.307 500.788 376.827 500.255 376.16L470.055 337.6C470.215 339.36 470.295 340.987 470.295 342.48V378H460.815V320.16H466.455C466.908 320.16 467.295 320.187 467.615 320.24C467.962 320.267 468.255 320.347 468.495 320.48C468.762 320.587 469.015 320.76 469.255 321C469.495 321.213 469.762 321.507 470.055 321.88L500.375 360.6C500.295 359.667 500.228 358.747 500.175 357.84C500.122 356.933 500.095 356.093 500.095 355.32V320.16H509.575ZM573.816 349.08C573.816 353.32 573.109 357.213 571.696 360.76C570.282 364.307 568.296 367.36 565.736 369.92C563.176 372.48 560.096 374.467 556.496 375.88C552.896 377.293 548.896 378 544.496 378H522.456V320.16H544.496C548.896 320.16 552.896 320.88 556.496 322.32C560.096 323.733 563.176 325.72 565.736 328.28C568.296 330.813 570.282 333.853 571.696 337.4C573.109 340.947 573.816 344.84 573.816 349.08ZM562.776 349.08C562.776 345.907 562.349 343.067 561.496 340.56C560.669 338.027 559.456 335.893 557.856 334.16C556.282 332.4 554.362 331.053 552.096 330.12C549.856 329.187 547.322 328.72 544.496 328.72H533.256V369.44H544.496C547.322 369.44 549.856 368.973 552.096 368.04C554.362 367.107 556.282 365.773 557.856 364.04C559.456 362.28 560.669 360.147 561.496 357.64C562.349 355.107 562.776 352.253 562.776 349.08ZM594.115 328.72V344.76H614.355V353.04H594.115V369.4H619.795V378H583.315V320.16H619.795V328.72H594.115ZM678.091 320.16V378H672.571C671.717 378 670.997 377.867 670.411 377.6C669.851 377.307 669.304 376.827 668.771 376.16L638.571 337.6C638.731 339.36 638.811 340.987 638.811 342.48V378H629.331V320.16H634.971C635.424 320.16 635.811 320.187 636.131 320.24C636.477 320.267 636.771 320.347 637.011 320.48C637.277 320.587 637.531 320.76 637.771 321C638.011 321.213 638.277 321.507 638.571 321.88L668.891 360.6C668.811 359.667 668.744 358.747 668.691 357.84C668.637 356.933 668.611 356.093 668.611 355.32V320.16H678.091ZM742.331 349.08C742.331 353.32 741.625 357.213 740.211 360.76C738.798 364.307 736.811 367.36 734.251 369.92C731.691 372.48 728.611 374.467 725.011 375.88C721.411 377.293 717.411 378 713.011 378H690.971V320.16H713.011C717.411 320.16 721.411 320.88 725.011 322.32C728.611 323.733 731.691 325.72 734.251 328.28C736.811 330.813 738.798 333.853 740.211 337.4C741.625 340.947 742.331 344.84 742.331 349.08ZM731.291 349.08C731.291 345.907 730.865 343.067 730.011 340.56C729.185 338.027 727.971 335.893 726.371 334.16C724.798 332.4 722.878 331.053 720.611 330.12C718.371 329.187 715.838 328.72 713.011 328.72H701.771V369.44H713.011C715.838 369.44 718.371 368.973 720.611 368.04C722.878 367.107 724.798 365.773 726.371 364.04C727.971 362.28 729.185 360.147 730.011 357.64C730.865 355.107 731.291 352.253 731.291 349.08ZM806.991 349.08C806.991 353.32 806.284 357.253 804.871 360.88C803.484 364.48 801.511 367.6 798.951 370.24C796.391 372.88 793.311 374.947 789.711 376.44C786.111 377.907 782.111 378.64 777.711 378.64C773.337 378.64 769.351 377.907 765.751 376.44C762.151 374.947 759.057 372.88 756.471 370.24C753.911 367.6 751.924 364.48 750.511 360.88C749.097 357.253 748.391 353.32 748.391 349.08C748.391 344.84 749.097 340.92 750.511 337.32C751.924 333.693 753.911 330.56 756.471 327.92C759.057 325.28 762.151 323.227 765.751 321.76C769.351 320.267 773.337 319.52 777.711 319.52C780.644 319.52 783.404 319.867 785.991 320.56C788.577 321.227 790.951 322.187 793.111 323.44C795.271 324.667 797.204 326.173 798.911 327.96C800.644 329.72 802.111 331.693 803.311 333.88C804.511 336.067 805.417 338.44 806.031 341C806.671 343.56 806.991 346.253 806.991 349.08ZM795.991 349.08C795.991 345.907 795.564 343.067 794.711 340.56C793.857 338.027 792.644 335.88 791.071 334.12C789.497 332.36 787.577 331.013 785.311 330.08C783.071 329.147 780.537 328.68 777.711 328.68C774.884 328.68 772.337 329.147 770.071 330.08C767.831 331.013 765.911 332.36 764.311 334.12C762.737 335.88 761.524 338.027 760.671 340.56C759.817 343.067 759.391 345.907 759.391 349.08C759.391 352.253 759.817 355.107 760.671 357.64C761.524 360.147 762.737 362.28 764.311 364.04C765.911 365.773 767.831 367.107 770.071 368.04C772.337 368.973 774.884 369.44 777.711 369.44C780.537 369.44 783.071 368.973 785.311 368.04C787.577 367.107 789.497 365.773 791.071 364.04C792.644 362.28 793.857 360.147 794.711 357.64C795.564 355.107 795.991 352.253 795.991 349.08ZM528.558 453.44C528.558 456.693 528.158 459.627 527.358 462.24C526.558 464.853 525.358 467.08 523.758 468.92C522.185 470.76 520.211 472.173 517.838 473.16C515.465 474.147 512.705 474.64 509.558 474.64C508.118 474.64 506.705 474.547 505.318 474.36C503.931 474.2 502.478 473.933 500.958 473.56C501.038 472.493 501.131 471.427 501.238 470.36C501.345 469.293 501.438 468.227 501.518 467.16C501.598 466.573 501.825 466.107 502.198 465.76C502.598 465.387 503.158 465.2 503.878 465.2C504.331 465.2 504.918 465.293 505.638 465.48C506.385 465.667 507.318 465.76 508.438 465.76C509.958 465.76 511.305 465.547 512.478 465.12C513.651 464.667 514.625 463.96 515.398 463C516.198 462.04 516.798 460.8 517.198 459.28C517.598 457.733 517.798 455.867 517.798 453.68V416.16H528.558V453.44ZM564.173 465.32C566.253 465.32 568.106 464.973 569.733 464.28C571.386 463.587 572.773 462.613 573.893 461.36C575.013 460.107 575.866 458.587 576.453 456.8C577.066 455.013 577.373 453.013 577.373 450.8V416.16H588.133V450.8C588.133 454.24 587.573 457.427 586.453 460.36C585.36 463.267 583.773 465.787 581.693 467.92C579.64 470.027 577.133 471.68 574.173 472.88C571.213 474.053 567.88 474.64 564.173 474.64C560.44 474.64 557.093 474.053 554.133 472.88C551.173 471.68 548.653 470.027 546.573 467.92C544.52 465.787 542.933 463.267 541.813 460.36C540.72 457.427 540.173 454.24 540.173 450.8V416.16H550.933V450.76C550.933 452.973 551.226 454.973 551.813 456.76C552.426 458.547 553.293 460.08 554.413 461.36C555.56 462.613 556.946 463.587 558.573 464.28C560.226 464.973 562.093 465.32 564.173 465.32ZM649.028 416.16V474H643.508C642.655 474 641.935 473.867 641.348 473.6C640.788 473.307 640.241 472.827 639.708 472.16L609.508 433.6C609.668 435.36 609.748 436.987 609.748 438.48V474H600.268V416.16H605.908C606.361 416.16 606.748 416.187 607.068 416.24C607.415 416.267 607.708 416.347 607.948 416.48C608.215 416.587 608.468 416.76 608.708 417C608.948 417.213 609.215 417.507 609.508 417.88L639.828 456.6C639.748 455.667 639.681 454.747 639.628 453.84C639.575 452.933 639.548 452.093 639.548 451.32V416.16H649.028ZM702.309 425H684.869V474H674.109V425H656.669V416.16H702.309V425ZM763.084 445.08C763.084 449.32 762.378 453.253 760.964 456.88C759.578 460.48 757.604 463.6 755.044 466.24C752.484 468.88 749.404 470.947 745.804 472.44C742.204 473.907 738.204 474.64 733.804 474.64C729.431 474.64 725.444 473.907 721.844 472.44C718.244 470.947 715.151 468.88 712.564 466.24C710.004 463.6 708.018 460.48 706.604 456.88C705.191 453.253 704.484 449.32 704.484 445.08C704.484 440.84 705.191 436.92 706.604 433.32C708.018 429.693 710.004 426.56 712.564 423.92C715.151 421.28 718.244 419.227 721.844 417.76C725.444 416.267 729.431 415.52 733.804 415.52C736.738 415.52 739.498 415.867 742.084 416.56C744.671 417.227 747.044 418.187 749.204 419.44C751.364 420.667 753.298 422.173 755.004 423.96C756.738 425.72 758.204 427.693 759.404 429.88C760.604 432.067 761.511 434.44 762.124 437C762.764 439.56 763.084 442.253 763.084 445.08ZM752.084 445.08C752.084 441.907 751.658 439.067 750.804 436.56C749.951 434.027 748.738 431.88 747.164 430.12C745.591 428.36 743.671 427.013 741.404 426.08C739.164 425.147 736.631 424.68 733.804 424.68C730.978 424.68 728.431 425.147 726.164 426.08C723.924 427.013 722.004 428.36 720.404 430.12C718.831 431.88 717.618 434.027 716.764 436.56C715.911 439.067 715.484 441.907 715.484 445.08C715.484 448.253 715.911 451.107 716.764 453.64C717.618 456.147 718.831 458.28 720.404 460.04C722.004 461.773 723.924 463.107 726.164 464.04C728.431 464.973 730.978 465.44 733.804 465.44C736.631 465.44 739.164 464.973 741.404 464.04C743.671 463.107 745.591 461.773 747.164 460.04C748.738 458.28 749.951 456.147 750.804 453.64C751.658 451.107 752.084 448.253 752.084 445.08ZM803.334 426.68C803.014 427.24 802.667 427.653 802.294 427.92C801.947 428.16 801.507 428.28 800.974 428.28C800.414 428.28 799.8 428.08 799.134 427.68C798.494 427.253 797.72 426.787 796.814 426.28C795.907 425.773 794.84 425.32 793.614 424.92C792.414 424.493 790.987 424.28 789.334 424.28C787.84 424.28 786.534 424.467 785.414 424.84C784.294 425.187 783.347 425.68 782.574 426.32C781.827 426.96 781.267 427.733 780.894 428.64C780.52 429.52 780.334 430.493 780.334 431.56C780.334 432.92 780.707 434.053 781.454 434.96C782.227 435.867 783.24 436.64 784.494 437.28C785.747 437.92 787.174 438.493 788.774 439C790.374 439.507 792.014 440.053 793.694 440.64C795.374 441.2 797.014 441.867 798.614 442.64C800.214 443.387 801.64 444.347 802.894 445.52C804.147 446.667 805.147 448.08 805.894 449.76C806.667 451.44 807.054 453.48 807.054 455.88C807.054 458.493 806.6 460.947 805.694 463.24C804.814 465.507 803.507 467.493 801.774 469.2C800.067 470.88 797.974 472.213 795.494 473.2C793.014 474.16 790.174 474.64 786.974 474.64C785.134 474.64 783.32 474.453 781.534 474.08C779.747 473.733 778.027 473.227 776.374 472.56C774.747 471.893 773.214 471.093 771.774 470.16C770.334 469.227 769.054 468.187 767.934 467.04L771.094 461.88C771.36 461.507 771.707 461.2 772.134 460.96C772.56 460.693 773.014 460.56 773.494 460.56C774.16 460.56 774.88 460.84 775.654 461.4C776.427 461.933 777.347 462.533 778.414 463.2C779.48 463.867 780.72 464.48 782.134 465.04C783.574 465.573 785.294 465.84 787.294 465.84C790.36 465.84 792.734 465.12 794.414 463.68C796.094 462.213 796.934 460.12 796.934 457.4C796.934 455.88 796.547 454.64 795.774 453.68C795.027 452.72 794.027 451.92 792.774 451.28C791.52 450.613 790.094 450.053 788.494 449.6C786.894 449.147 785.267 448.653 783.614 448.12C781.96 447.587 780.334 446.947 778.734 446.2C777.134 445.453 775.707 444.48 774.454 443.28C773.2 442.08 772.187 440.587 771.414 438.8C770.667 436.987 770.294 434.76 770.294 432.12C770.294 430.013 770.707 427.96 771.534 425.96C772.387 423.96 773.614 422.187 775.214 420.64C776.814 419.093 778.787 417.853 781.134 416.92C783.48 415.987 786.174 415.52 789.214 415.52C792.627 415.52 795.774 416.053 798.654 417.12C801.534 418.187 803.987 419.68 806.014 421.6L803.334 426.68Z" fill="white"/>
</g>
</g>
<defs>
<filter id="filter0_d" x="247.435" y="223.52" width="563.619" height="259.12" filterUnits="userSpaceOnUse" color-interpolation-filters="sRGB">
<feFlood flood-opacity="0" result="BackgroundImageFix"/>
<feColorMatrix in="SourceAlpha" type="matrix" values="0 0 0 0 0 0 0 0 0 0 0 0 0 0 0 0 0 0 127 0"/>
<feOffset dy="4"/>
<feGaussianBlur stdDeviation="2"/>
<feColorMatrix type="matrix" values="0 0 0 0 0 0 0 0 0 0 0 0 0 0 0 0 0 0 0.25 0"/>
<feBlend mode="normal" in2="BackgroundImageFix" result="effect1_dropShadow"/>
<feBlend mode="normal" in="SourceGraphic" in2="effect1_dropShadow" result="shape"/>
</filter>
<linearGradient id="paint0_linear" x1="179.443" y1="112.356" x2="179.443" y2="18.9604" gradientUnits="userSpaceOnUse">
<stop stop-color="#808080" stop-opacity="0.25"/>
<stop offset="0.53514" stop-color="#808080" stop-opacity="0.12"/>
<stop offset="1" stop-color="#808080" stop-opacity="0.1"/>
</linearGradient>
<linearGradient id="paint1_linear" x1="55946.7" y1="17497" x2="55946.7" y2="3389.43" gradientUnits="userSpaceOnUse">
<stop stop-color="#808080" stop-opacity="0.25"/>
<stop offset="0.53514" stop-color="#808080" stop-opacity="0.12"/>
<stop offset="1" stop-color="#808080" stop-opacity="0.1"/>
</linearGradient>
<linearGradient id="paint2_linear" x1="41594.2" y1="29146.3" x2="41594.2" y2="15038.7" gradientUnits="userSpaceOnUse">
<stop stop-color="#808080" stop-opacity="0.25"/>
<stop offset="0.53514" stop-color="#808080" stop-opacity="0.12"/>
<stop offset="1" stop-color="#808080" stop-opacity="0.1"/>
</linearGradient>
<clipPath id="clip0">
<rect width="820" height="480" fill="white"/>
</clipPath>
<clipPath id="clip1">
<rect width="432" height="486" fill="white"/>
</clipPath>
</defs>
</svg>
