<?xml version="1.0" encoding="UTF-8" standalone="no"?> <svg xmlns="http://www.w3.org/2000/svg" xmlns:xlink="http://www.w3.org/1999/xlink" viewBox="0 0 117.13 106.76"><defs><style>.cls-1{fill:url(#linear-gradient);}.cls-2{fill:url(#linear-gradient-2);}</style><linearGradient id="linear-gradient" x1="25.54" y1="53.38" x2="92.63" y2="53.38" gradientUnits="userSpaceOnUse"><stop offset="0" stop-color="#ffbb36"/><stop offset="0.35" stop-color="#ff5176"/><stop offset="0.52" stop-color="#f63395"/><stop offset="0.74" stop-color="#a436d2"/><stop offset="1" stop-color="#5f4eed"/></linearGradient><linearGradient id="linear-gradient-2" x1="0" y1="53.38" x2="117.13" y2="53.38" xlink:href="#linear-gradient"/></defs><title>Asset 17</title><g id="Layer_2" data-name="Layer 2"><g id="图层_1" data-name="图层 1"><path class="cls-1" d="M76.74,32.19a3.95,3.95,0,1,0,3.94,3.94A3.94,3.94,0,0,0,76.74,32.19ZM59.2,37.25A16.57,16.57,0,1,0,75.77,53.81,16.59,16.59,0,0,0,59.2,37.25Zm0,27.18A10.62,10.62,0,1,1,69.81,53.81,10.62,10.62,0,0,1,59.2,64.43ZM92.63,40a20.2,20.2,0,0,0-20.21-20.2H45.75A20.2,20.2,0,0,0,25.54,40V66.72A20.21,20.21,0,0,0,45.75,86.93H72.42A20.21,20.21,0,0,0,92.63,66.72ZM86.3,66.72A13.88,13.88,0,0,1,72.42,80.6H45.75A13.89,13.89,0,0,1,31.87,66.72V40A13.88,13.88,0,0,1,45.75,26.17H72.42A13.87,13.87,0,0,1,86.3,40Z"/><path class="cls-2" d="M77.94,106.76H39.19A19.87,19.87,0,0,1,22,96.85L2.65,63.29a19.87,19.87,0,0,1,0-19.82L22,9.91A19.89,19.89,0,0,1,39.19,0H77.94A19.89,19.89,0,0,1,95.11,9.91l19.37,33.56a19.87,19.87,0,0,1,0,19.82L95.11,96.85A19.87,19.87,0,0,1,77.94,106.76ZM39.19,7.92a11.91,11.91,0,0,0-10.3,5.95L9.51,47.43a11.93,11.93,0,0,0,0,11.9L28.89,92.89a11.91,11.91,0,0,0,10.3,6H77.94a11.94,11.94,0,0,0,10.31-6l19.37-33.56a11.93,11.93,0,0,0,0-11.9L88.25,13.87A11.94,11.94,0,0,0,77.94,7.92Z"/></g></g></svg>