<svg width="336" height="31" viewBox="0 0 336 31" fill="none" xmlns="http://www.w3.org/2000/svg">
<g filter="url(#filter0_i)">
<path d="M31.58 1.08V30H26.84V11.32C26.84 10.5733 26.88 9.76667 26.96 8.9L18.22 25.32C17.8067 26.1067 17.1733 26.5 16.32 26.5H15.56C14.7067 26.5 14.0733 26.1067 13.66 25.32L4.82 8.84C4.86 9.28 4.89333 9.71333 4.92 10.14C4.94667 10.5667 4.96 10.96 4.96 11.32V30H0.22V1.08H4.28C4.52 1.08 4.72667 1.08666 4.9 1.1C5.07333 1.11333 5.22667 1.14666 5.36 1.2C5.50667 1.25333 5.63333 1.34 5.74 1.46C5.86 1.58 5.97333 1.74 6.08 1.94L14.74 18C14.9667 18.4267 15.1733 18.8667 15.36 19.32C15.56 19.7733 15.7533 20.24 15.94 20.72C16.1267 20.2267 16.32 19.7533 16.52 19.3C16.72 18.8333 16.9333 18.3867 17.16 17.96L25.7 1.94C25.8067 1.74 25.92 1.58 26.04 1.46C26.16 1.34 26.2867 1.25333 26.42 1.2C26.5667 1.14666 26.7267 1.11333 26.9 1.1C27.0733 1.08666 27.28 1.08 27.52 1.08H31.58ZM65.6125 15.54C65.6125 17.66 65.2592 19.6267 64.5525 21.44C63.8592 23.24 62.8725 24.8 61.5925 26.12C60.3125 27.44 58.7725 28.4733 56.9725 29.22C55.1725 29.9533 53.1725 30.32 50.9725 30.32C48.7858 30.32 46.7925 29.9533 44.9925 29.22C43.1925 28.4733 41.6458 27.44 40.3525 26.12C39.0725 24.8 38.0792 23.24 37.3725 21.44C36.6658 19.6267 36.3125 17.66 36.3125 15.54C36.3125 13.42 36.6658 11.46 37.3725 9.66C38.0792 7.84667 39.0725 6.28 40.3525 4.96C41.6458 3.64 43.1925 2.61333 44.9925 1.88C46.7925 1.13333 48.7858 0.76 50.9725 0.76C52.4392 0.76 53.8192 0.933332 55.1125 1.28C56.4058 1.61333 57.5925 2.09333 58.6725 2.72C59.7525 3.33333 60.7192 4.08667 61.5725 4.98C62.4392 5.86 63.1725 6.84667 63.7725 7.94C64.3725 9.03333 64.8258 10.22 65.1325 11.5C65.4525 12.78 65.6125 14.1267 65.6125 15.54ZM60.1125 15.54C60.1125 13.9533 59.8992 12.5333 59.4725 11.28C59.0458 10.0133 58.4392 8.94 57.6525 8.06C56.8658 7.18 55.9058 6.50666 54.7725 6.04C53.6525 5.57333 52.3858 5.34 50.9725 5.34C49.5592 5.34 48.2858 5.57333 47.1525 6.04C46.0325 6.50666 45.0725 7.18 44.2725 8.06C43.4858 8.94 42.8792 10.0133 42.4525 11.28C42.0258 12.5333 41.8125 13.9533 41.8125 15.54C41.8125 17.1267 42.0258 18.5533 42.4525 19.82C42.8792 21.0733 43.4858 22.14 44.2725 23.02C45.0725 23.8867 46.0325 24.5533 47.1525 25.02C48.2858 25.4867 49.5592 25.72 50.9725 25.72C52.3858 25.72 53.6525 25.4867 54.7725 25.02C55.9058 24.5533 56.8658 23.8867 57.6525 23.02C58.4392 22.14 59.0458 21.0733 59.4725 19.82C59.8992 18.5533 60.1125 17.1267 60.1125 15.54ZM94.1797 1.08L82.4997 30H77.6397L65.9597 1.08H70.2797C70.7464 1.08 71.1264 1.19333 71.4197 1.42C71.713 1.64667 71.933 1.94 72.0797 2.3L78.8997 19.94C79.1264 20.5133 79.3397 21.1467 79.5397 21.84C79.753 22.52 79.953 23.2333 80.1397 23.98C80.2997 23.2333 80.473 22.52 80.6597 21.84C80.8464 21.1467 81.053 20.5133 81.2797 19.94L88.0597 2.3C88.1664 1.99333 88.373 1.71333 88.6797 1.46C88.9997 1.20667 89.3864 1.08 89.8397 1.08H94.1797ZM102.573 5.36V13.38H112.693V17.52H102.573V25.7H115.413V30H97.1731V1.08H115.413V5.36H102.573ZM149.768 23.18C150.061 23.18 150.321 23.2933 150.548 23.52L152.668 25.82C151.494 27.2733 150.048 28.3867 148.328 29.16C146.621 29.9333 144.568 30.32 142.168 30.32C140.021 30.32 138.088 29.9533 136.368 29.22C134.661 28.4867 133.201 27.4667 131.988 26.16C130.774 24.8533 129.841 23.2933 129.188 21.48C128.548 19.6667 128.228 17.6867 128.228 15.54C128.228 13.3667 128.574 11.38 129.268 9.58C129.961 7.76667 130.934 6.20667 132.188 4.9C133.454 3.59333 134.961 2.58 136.708 1.86C138.454 1.12667 140.388 0.76 142.508 0.76C144.614 0.76 146.481 1.10667 148.108 1.8C149.748 2.49333 151.141 3.4 152.288 4.52L150.488 7.02C150.381 7.18 150.241 7.32 150.068 7.44C149.908 7.56 149.681 7.62 149.388 7.62C149.188 7.62 148.981 7.56667 148.768 7.46C148.554 7.34 148.321 7.2 148.068 7.04C147.814 6.86667 147.521 6.68 147.188 6.48C146.854 6.28 146.468 6.1 146.028 5.94C145.588 5.76667 145.074 5.62666 144.488 5.52C143.914 5.4 143.248 5.34 142.488 5.34C141.194 5.34 140.008 5.57333 138.928 6.04C137.861 6.49333 136.941 7.16 136.168 8.04C135.394 8.90667 134.794 9.97333 134.368 11.24C133.941 12.4933 133.728 13.9267 133.728 15.54C133.728 17.1667 133.954 18.6133 134.408 19.88C134.874 21.1467 135.501 22.2133 136.288 23.08C137.074 23.9467 138.001 24.6133 139.068 25.08C140.134 25.5333 141.281 25.76 142.508 25.76C143.241 25.76 143.901 25.72 144.488 25.64C145.088 25.56 145.634 25.4333 146.128 25.26C146.634 25.0867 147.108 24.8667 147.548 24.6C148.001 24.32 148.448 23.98 148.888 23.58C149.021 23.46 149.161 23.3667 149.308 23.3C149.454 23.22 149.608 23.18 149.768 23.18ZM183.308 15.54C183.308 17.66 182.954 19.6267 182.248 21.44C181.554 23.24 180.568 24.8 179.288 26.12C178.008 27.44 176.468 28.4733 174.668 29.22C172.868 29.9533 170.868 30.32 168.668 30.32C166.481 30.32 164.488 29.9533 162.688 29.22C160.888 28.4733 159.341 27.44 158.048 26.12C156.768 24.8 155.774 23.24 155.068 21.44C154.361 19.6267 154.008 17.66 154.008 15.54C154.008 13.42 154.361 11.46 155.068 9.66C155.774 7.84667 156.768 6.28 158.048 4.96C159.341 3.64 160.888 2.61333 162.688 1.88C164.488 1.13333 166.481 0.76 168.668 0.76C170.134 0.76 171.514 0.933332 172.808 1.28C174.101 1.61333 175.288 2.09333 176.368 2.72C177.448 3.33333 178.414 4.08667 179.268 4.98C180.134 5.86 180.868 6.84667 181.468 7.94C182.068 9.03333 182.521 10.22 182.828 11.5C183.148 12.78 183.308 14.1267 183.308 15.54ZM177.808 15.54C177.808 13.9533 177.594 12.5333 177.168 11.28C176.741 10.0133 176.134 8.94 175.348 8.06C174.561 7.18 173.601 6.50666 172.468 6.04C171.348 5.57333 170.081 5.34 168.668 5.34C167.254 5.34 165.981 5.57333 164.848 6.04C163.728 6.50666 162.768 7.18 161.968 8.06C161.181 8.94 160.574 10.0133 160.148 11.28C159.721 12.5333 159.508 13.9533 159.508 15.54C159.508 17.1267 159.721 18.5533 160.148 19.82C160.574 21.0733 161.181 22.14 161.968 23.02C162.768 23.8867 163.728 24.5533 164.848 25.02C165.981 25.4867 167.254 25.72 168.668 25.72C170.081 25.72 171.348 25.4867 172.468 25.02C173.601 24.5533 174.561 23.8867 175.348 23.02C176.134 22.14 176.741 21.0733 177.168 19.82C177.594 18.5533 177.808 17.1267 177.808 15.54ZM212.413 1.08V30H209.653C209.226 30 208.866 29.9333 208.573 29.8C208.293 29.6533 208.019 29.4133 207.753 29.08L192.653 9.8C192.733 10.68 192.773 11.4933 192.773 12.24V30H188.033V1.08H190.853C191.079 1.08 191.273 1.09333 191.433 1.12C191.606 1.13333 191.753 1.17333 191.873 1.24C192.006 1.29333 192.133 1.38 192.253 1.5C192.373 1.60667 192.506 1.75333 192.653 1.94L207.813 21.3C207.773 20.8333 207.739 20.3733 207.713 19.92C207.686 19.4667 207.673 19.0467 207.673 18.66V1.08H212.413ZM234.253 6.34C234.093 6.62 233.919 6.82667 233.733 6.96C233.559 7.08 233.339 7.14 233.073 7.14C232.793 7.14 232.486 7.04 232.153 6.84C231.833 6.62667 231.446 6.39333 230.993 6.14C230.539 5.88667 230.006 5.66 229.393 5.46C228.793 5.24667 228.079 5.14 227.253 5.14C226.506 5.14 225.853 5.23333 225.293 5.42C224.733 5.59333 224.259 5.84 223.873 6.16C223.499 6.48 223.219 6.86666 223.033 7.32C222.846 7.76 222.753 8.24667 222.753 8.78C222.753 9.46 222.939 10.0267 223.313 10.48C223.699 10.9333 224.206 11.32 224.833 11.64C225.459 11.96 226.173 12.2467 226.973 12.5C227.773 12.7533 228.593 13.0267 229.433 13.32C230.273 13.6 231.093 13.9333 231.893 14.32C232.693 14.6933 233.406 15.1733 234.033 15.76C234.659 16.3333 235.159 17.04 235.533 17.88C235.919 18.72 236.113 19.74 236.113 20.94C236.113 22.2467 235.886 23.4733 235.433 24.62C234.993 25.7533 234.339 26.7467 233.473 27.6C232.619 28.44 231.573 29.1067 230.333 29.6C229.093 30.08 227.673 30.32 226.073 30.32C225.153 30.32 224.246 30.2267 223.353 30.04C222.459 29.8667 221.599 29.6133 220.773 29.28C219.959 28.9467 219.193 28.5467 218.473 28.08C217.753 27.6133 217.113 27.0933 216.553 26.52L218.133 23.94C218.266 23.7533 218.439 23.6 218.653 23.48C218.866 23.3467 219.093 23.28 219.333 23.28C219.666 23.28 220.026 23.42 220.413 23.7C220.799 23.9667 221.259 24.2667 221.793 24.6C222.326 24.9333 222.946 25.24 223.653 25.52C224.373 25.7867 225.233 25.92 226.233 25.92C227.766 25.92 228.953 25.56 229.793 24.84C230.633 24.1067 231.053 23.06 231.053 21.7C231.053 20.94 230.859 20.32 230.473 19.84C230.099 19.36 229.599 18.96 228.973 18.64C228.346 18.3067 227.633 18.0267 226.833 17.8C226.033 17.5733 225.219 17.3267 224.393 17.06C223.566 16.7933 222.753 16.4733 221.953 16.1C221.153 15.7267 220.439 15.24 219.813 14.64C219.186 14.04 218.679 13.2933 218.293 12.4C217.919 11.4933 217.733 10.38 217.733 9.06C217.733 8.00667 217.939 6.98 218.353 5.98C218.779 4.98 219.393 4.09333 220.193 3.32C220.993 2.54666 221.979 1.92667 223.153 1.46C224.326 0.993333 225.673 0.76 227.193 0.76C228.899 0.76 230.473 1.02667 231.913 1.56C233.353 2.09333 234.579 2.84 235.593 3.8L234.253 6.34ZM252.446 25.66C253.486 25.66 254.413 25.4867 255.226 25.14C256.053 24.7933 256.746 24.3067 257.306 23.68C257.866 23.0533 258.293 22.2933 258.586 21.4C258.893 20.5067 259.046 19.5067 259.046 18.4V1.08H264.426V18.4C264.426 20.12 264.146 21.7133 263.586 23.18C263.039 24.6333 262.246 25.8933 261.206 26.96C260.179 28.0133 258.926 28.84 257.446 29.44C255.966 30.0267 254.299 30.32 252.446 30.32C250.579 30.32 248.906 30.0267 247.426 29.44C245.946 28.84 244.686 28.0133 243.646 26.96C242.619 25.8933 241.826 24.6333 241.266 23.18C240.719 21.7133 240.446 20.12 240.446 18.4V1.08H245.826V18.38C245.826 19.4867 245.973 20.4867 246.266 21.38C246.573 22.2733 247.006 23.04 247.566 23.68C248.139 24.3067 248.833 24.7933 249.646 25.14C250.473 25.4867 251.406 25.66 252.446 25.66ZM301.853 1.08V30H297.113V11.32C297.113 10.5733 297.153 9.76667 297.233 8.9L288.493 25.32C288.08 26.1067 287.447 26.5 286.593 26.5H285.833C284.98 26.5 284.347 26.1067 283.933 25.32L275.093 8.84C275.133 9.28 275.167 9.71333 275.193 10.14C275.22 10.5667 275.233 10.96 275.233 11.32V30H270.493V1.08H274.553C274.793 1.08 275 1.08666 275.173 1.1C275.347 1.11333 275.5 1.14666 275.633 1.2C275.78 1.25333 275.907 1.34 276.013 1.46C276.133 1.58 276.247 1.74 276.353 1.94L285.013 18C285.24 18.4267 285.447 18.8667 285.633 19.32C285.833 19.7733 286.027 20.24 286.213 20.72C286.4 20.2267 286.593 19.7533 286.793 19.3C286.993 18.8333 287.207 18.3867 287.433 17.96L295.973 1.94C296.08 1.74 296.193 1.58 296.313 1.46C296.433 1.34 296.56 1.25333 296.693 1.2C296.84 1.14666 297 1.11333 297.173 1.1C297.347 1.08666 297.553 1.08 297.793 1.08H301.853ZM335.886 15.54C335.886 17.66 335.533 19.6267 334.826 21.44C334.133 23.24 333.146 24.8 331.866 26.12C330.586 27.44 329.046 28.4733 327.246 29.22C325.446 29.9533 323.446 30.32 321.246 30.32C319.059 30.32 317.066 29.9533 315.266 29.22C313.466 28.4733 311.919 27.44 310.626 26.12C309.346 24.8 308.353 23.24 307.646 21.44C306.939 19.6267 306.586 17.66 306.586 15.54C306.586 13.42 306.939 11.46 307.646 9.66C308.353 7.84667 309.346 6.28 310.626 4.96C311.919 3.64 313.466 2.61333 315.266 1.88C317.066 1.13333 319.059 0.76 321.246 0.76C322.713 0.76 324.093 0.933332 325.386 1.28C326.679 1.61333 327.866 2.09333 328.946 2.72C330.026 3.33333 330.993 4.08667 331.846 4.98C332.713 5.86 333.446 6.84667 334.046 7.94C334.646 9.03333 335.099 10.22 335.406 11.5C335.726 12.78 335.886 14.1267 335.886 15.54ZM330.386 15.54C330.386 13.9533 330.173 12.5333 329.746 11.28C329.319 10.0133 328.713 8.94 327.926 8.06C327.139 7.18 326.179 6.50666 325.046 6.04C323.926 5.57333 322.659 5.34 321.246 5.34C319.833 5.34 318.559 5.57333 317.426 6.04C316.306 6.50666 315.346 7.18 314.546 8.06C313.759 8.94 313.153 10.0133 312.726 11.28C312.299 12.5333 312.086 13.9533 312.086 15.54C312.086 17.1267 312.299 18.5533 312.726 19.82C313.153 21.0733 313.759 22.14 314.546 23.02C315.346 23.8867 316.306 24.5533 317.426 25.02C318.559 25.4867 319.833 25.72 321.246 25.72C322.659 25.72 323.926 25.4867 325.046 25.02C326.179 24.5533 327.139 23.8867 327.926 23.02C328.713 22.14 329.319 21.0733 329.746 19.82C330.173 18.5533 330.386 17.1267 330.386 15.54Z" fill="#014AAD"/>
</g>
<defs>
<filter id="filter0_i" x="0.220001" y="0.759995" width="335.666" height="33.56" filterUnits="userSpaceOnUse" color-interpolation-filters="sRGB">
<feFlood flood-opacity="0" result="BackgroundImageFix"/>
<feBlend mode="normal" in="SourceGraphic" in2="BackgroundImageFix" result="shape"/>
<feColorMatrix in="SourceAlpha" type="matrix" values="0 0 0 0 0 0 0 0 0 0 0 0 0 0 0 0 0 0 127 0" result="hardAlpha"/>
<feOffset dy="4"/>
<feGaussianBlur stdDeviation="2"/>
<feComposite in2="hardAlpha" operator="arithmetic" k2="-1" k3="1"/>
<feColorMatrix type="matrix" values="0 0 0 0 0 0 0 0 0 0 0 0 0 0 0 0 0 0 0.25 0"/>
<feBlend mode="normal" in2="shape" result="effect1_innerShadow"/>
</filter>
</defs>
</svg>
