<svg width="1440" height="783" viewBox="0 0 1440 783" fill="none" xmlns="http://www.w3.org/2000/svg">
<g clip-path="url(#clip0)">
<g clip-path="url(#clip1)">
<path d="M135.095 4.33975L150.095 13L135.095 21.6603V4.33975Z" stroke="white"/>
<path d="M89.8281 48.0653L104.828 56.7256L89.8281 65.3858V48.0653Z" stroke="white"/>
<path d="M89.2202 148.064L104.22 156.724L89.2202 165.384V148.064Z" stroke="white"/>
<path d="M134.505 101.338L149.505 109.998L134.505 118.659V101.338Z" stroke="white"/>
<path d="M133.916 198.336L148.916 206.996L133.916 215.657V198.336Z" stroke="white"/>
<path d="M88.6125 248.062L103.613 256.722L88.6125 265.382V248.062Z" stroke="white"/>
<path d="M88.0046 348.06L103.005 356.72L88.0046 365.38V348.06Z" stroke="white"/>
<path d="M133.326 295.334L148.326 303.995L133.326 312.655V295.334Z" stroke="white"/>
<path d="M53.0903 4.84121L68.0903 13.5015L53.0903 22.1617V4.84121Z" stroke="white"/>
<path d="M7.82373 48.5668L22.8237 57.2271L7.82373 65.8873L7.82373 48.5668Z" stroke="white"/>
<path d="M7.21582 148.565L22.2158 157.225L7.21582 165.886L7.21582 148.565Z" stroke="white"/>
<path d="M52.5007 101.84L67.5007 110.5L52.5007 119.16V101.84Z" stroke="white"/>
<path d="M51.9111 198.838L66.9111 207.498L51.9111 216.158V198.838Z" stroke="white"/>
<path d="M6.60791 248.563L21.6079 257.223L6.60791 265.884L6.60791 248.563Z" stroke="white"/>
<path d="M6 348.561L21 357.222L6 365.882L6 348.561Z" stroke="white"/>
<path d="M51.3213 295.836L66.3213 304.496L51.3213 313.156V295.836Z" stroke="white"/>
<path d="M300.095 3.33975L315.095 12L300.095 20.6603V3.33975Z" stroke="white"/>
<path d="M254.828 47.0653L269.828 55.7256L254.828 64.3858V47.0653Z" stroke="white"/>
<path d="M254.22 147.064L269.22 155.724L254.22 164.384V147.064Z" stroke="white"/>
<path d="M299.505 100.338L314.505 108.998L299.505 117.659V100.338Z" stroke="white"/>
<path d="M298.916 197.336L313.916 205.996L298.916 214.657V197.336Z" stroke="white"/>
<path d="M253.613 247.062L268.613 255.722L253.613 264.382V247.062Z" stroke="white"/>
<path d="M253.005 347.06L268.005 355.72L253.005 364.38V347.06Z" stroke="white"/>
<path d="M298.326 294.334L313.326 302.995L298.326 311.655V294.334Z" stroke="white"/>
<path d="M218.09 3.84121L233.09 12.5015L218.09 21.1617V3.84121Z" stroke="white"/>
<path d="M172.824 47.5668L187.824 56.2271L172.824 64.8873V47.5668Z" stroke="white"/>
<path d="M172.216 147.565L187.216 156.225L172.216 164.886V147.565Z" stroke="white"/>
<path d="M217.501 100.84L232.501 109.5L217.501 118.16V100.84Z" stroke="white"/>
<path d="M216.911 197.838L231.911 206.498L216.911 215.158V197.838Z" stroke="white"/>
<path d="M171.608 247.563L186.608 256.223L171.608 264.884V247.563Z" stroke="white"/>
<path d="M171 347.561L186 356.222L171 364.882V347.561Z" stroke="white"/>
<path d="M216.321 294.836L231.321 303.496L216.321 312.156V294.836Z" stroke="white"/>
<path d="M144.095 4.33975L159.095 13L144.095 21.6603V4.33975Z" stroke="white"/>
<path d="M98.8281 48.0653L113.828 56.7256L98.8281 65.3858V48.0653Z" stroke="white"/>
<path d="M98.2202 148.064L113.22 156.724L98.2202 165.384V148.064Z" stroke="white"/>
<path d="M143.505 101.338L158.505 109.998L143.505 118.659V101.338Z" stroke="white"/>
<path d="M142.916 198.336L157.916 206.996L142.916 215.657V198.336Z" stroke="white"/>
<path d="M97.6125 248.062L112.613 256.722L97.6125 265.382V248.062Z" stroke="white"/>
<path d="M97.0046 348.06L112.005 356.72L97.0046 365.38V348.06Z" stroke="white"/>
<path d="M142.326 295.334L157.326 303.995L142.326 312.655V295.334Z" stroke="white"/>
<path d="M62.0903 4.84121L77.0903 13.5015L62.0903 22.1617V4.84121Z" stroke="white"/>
<path d="M16.8237 48.5668L31.8237 57.2271L16.8237 65.8873L16.8237 48.5668Z" stroke="white"/>
<path d="M16.2158 148.565L31.2158 157.225L16.2158 165.886L16.2158 148.565Z" stroke="white"/>
<path d="M61.5007 101.84L76.5007 110.5L61.5007 119.16V101.84Z" stroke="white"/>
<path d="M60.9111 198.838L75.9111 207.498L60.9111 216.158V198.838Z" stroke="white"/>
<path d="M15.6079 248.563L30.6079 257.223L15.6079 265.884L15.6079 248.563Z" stroke="white"/>
<path d="M15 348.561L30 357.222L15 365.882L15 348.561Z" stroke="white"/>
<path d="M60.3213 295.836L75.3213 304.496L60.3213 313.156V295.836Z" stroke="white"/>
<path d="M309.095 3.33975L324.095 12L309.095 20.6603V3.33975Z" stroke="white"/>
<path d="M263.828 47.0653L278.828 55.7256L263.828 64.3858V47.0653Z" stroke="white"/>
<path d="M263.22 147.064L278.22 155.724L263.22 164.384V147.064Z" stroke="white"/>
<path d="M308.505 100.338L323.505 108.998L308.505 117.659V100.338Z" stroke="white"/>
<path d="M307.916 197.336L322.916 205.996L307.916 214.657V197.336Z" stroke="white"/>
<path d="M262.613 247.062L277.613 255.722L262.613 264.382V247.062Z" stroke="white"/>
<path d="M262.005 347.06L277.005 355.72L262.005 364.38V347.06Z" stroke="white"/>
<path d="M307.326 294.334L322.326 302.995L307.326 311.655V294.334Z" stroke="white"/>
<path d="M227.09 3.84121L242.09 12.5015L227.09 21.1617V3.84121Z" stroke="white"/>
<path d="M181.824 47.5668L196.824 56.2271L181.824 64.8873V47.5668Z" stroke="white"/>
<path d="M181.216 147.565L196.216 156.225L181.216 164.886V147.565Z" stroke="white"/>
<path d="M226.501 100.84L241.501 109.5L226.501 118.16V100.84Z" stroke="white"/>
<path d="M225.911 197.838L240.911 206.498L225.911 215.158V197.838Z" stroke="white"/>
<path d="M180.608 247.563L195.608 256.223L180.608 264.884V247.563Z" stroke="white"/>
<path d="M180 347.561L195 356.222L180 364.882V347.561Z" stroke="white"/>
<path d="M225.321 294.836L240.321 303.496L225.321 312.156V294.836Z" stroke="white"/>
</g>
<g clip-path="url(#clip2)">
<path d="M789.095 394.34L804.095 403L789.095 411.66V394.34Z" stroke="white"/>
<path d="M743.828 438.065L758.828 446.726L743.828 455.386V438.065Z" stroke="white"/>
<path d="M743.22 538.064L758.22 546.724L743.22 555.384V538.064Z" stroke="white"/>
<path d="M788.505 491.338L803.505 499.998L788.505 508.659V491.338Z" stroke="white"/>
<path d="M787.916 588.336L802.916 596.996L787.916 605.657V588.336Z" stroke="white"/>
<path d="M742.613 638.062L757.613 646.722L742.613 655.382V638.062Z" stroke="white"/>
<path d="M742.005 738.06L757.005 746.72L742.005 755.38V738.06Z" stroke="white"/>
<path d="M787.326 685.334L802.326 693.995L787.326 702.655V685.334Z" stroke="white"/>
<path d="M707.09 394.841L722.09 403.501L707.09 412.162V394.841Z" stroke="white"/>
<path d="M661.824 438.567L676.824 447.227L661.824 455.887V438.567Z" stroke="white"/>
<path d="M661.216 538.565L676.216 547.225L661.216 555.886V538.565Z" stroke="white"/>
<path d="M706.501 491.84L721.501 500.5L706.501 509.16V491.84Z" stroke="white"/>
<path d="M705.911 588.838L720.911 597.498L705.911 606.158V588.838Z" stroke="white"/>
<path d="M660.608 638.563L675.608 647.223L660.608 655.884V638.563Z" stroke="white"/>
<path d="M660 738.561L675 747.222L660 755.882V738.561Z" stroke="white"/>
<path d="M705.321 685.836L720.321 694.496L705.321 703.156V685.836Z" stroke="white"/>
<path d="M954.095 393.34L969.095 402L954.095 410.66V393.34Z" stroke="white"/>
<path d="M908.828 437.065L923.828 445.726L908.828 454.386V437.065Z" stroke="white"/>
<path d="M908.22 537.064L923.22 545.724L908.22 554.384V537.064Z" stroke="white"/>
<path d="M953.505 490.338L968.505 498.998L953.505 507.659V490.338Z" stroke="white"/>
<path d="M952.916 587.336L967.916 595.996L952.916 604.657V587.336Z" stroke="white"/>
<path d="M907.613 637.062L922.613 645.722L907.613 654.382V637.062Z" stroke="white"/>
<path d="M907.005 737.06L922.005 745.72L907.005 754.38V737.06Z" stroke="white"/>
<path d="M952.326 684.334L967.326 692.995L952.326 701.655V684.334Z" stroke="white"/>
<path d="M872.09 393.841L887.09 402.501L872.09 411.162V393.841Z" stroke="white"/>
<path d="M826.824 437.567L841.824 446.227L826.824 454.887V437.567Z" stroke="white"/>
<path d="M826.216 537.565L841.216 546.225L826.216 554.886V537.565Z" stroke="white"/>
<path d="M871.501 490.84L886.501 499.5L871.501 508.16V490.84Z" stroke="white"/>
<path d="M870.911 587.838L885.911 596.498L870.911 605.158V587.838Z" stroke="white"/>
<path d="M825.608 637.563L840.608 646.223L825.608 654.884V637.563Z" stroke="white"/>
<path d="M825 737.561L840 746.222L825 754.882V737.561Z" stroke="white"/>
<path d="M870.321 684.836L885.321 693.496L870.321 702.156V684.836Z" stroke="white"/>
<path d="M798.095 394.34L813.095 403L798.095 411.66V394.34Z" stroke="white"/>
<path d="M752.828 438.065L767.828 446.726L752.828 455.386V438.065Z" stroke="white"/>
<path d="M752.22 538.064L767.22 546.724L752.22 555.384V538.064Z" stroke="white"/>
<path d="M797.505 491.338L812.505 499.998L797.505 508.659V491.338Z" stroke="white"/>
<path d="M796.916 588.336L811.916 596.996L796.916 605.657V588.336Z" stroke="white"/>
<path d="M751.613 638.062L766.613 646.722L751.613 655.382V638.062Z" stroke="white"/>
<path d="M751.005 738.06L766.005 746.72L751.005 755.38V738.06Z" stroke="white"/>
<path d="M796.326 685.334L811.326 693.995L796.326 702.655V685.334Z" stroke="white"/>
<path d="M716.09 394.841L731.09 403.501L716.09 412.162V394.841Z" stroke="white"/>
<path d="M670.824 438.567L685.824 447.227L670.824 455.887V438.567Z" stroke="white"/>
<path d="M670.216 538.565L685.216 547.225L670.216 555.886V538.565Z" stroke="white"/>
<path d="M715.501 491.84L730.501 500.5L715.501 509.16V491.84Z" stroke="white"/>
<path d="M714.911 588.838L729.911 597.498L714.911 606.158V588.838Z" stroke="white"/>
<path d="M669.608 638.563L684.608 647.223L669.608 655.884V638.563Z" stroke="white"/>
<path d="M669 738.561L684 747.222L669 755.882V738.561Z" stroke="white"/>
<path d="M714.321 685.836L729.321 694.496L714.321 703.156V685.836Z" stroke="white"/>
<path d="M963.095 393.34L978.095 402L963.095 410.66V393.34Z" stroke="white"/>
<path d="M917.828 437.065L932.828 445.726L917.828 454.386V437.065Z" stroke="white"/>
<path d="M917.22 537.064L932.22 545.724L917.22 554.384V537.064Z" stroke="white"/>
<path d="M962.505 490.338L977.505 498.998L962.505 507.659V490.338Z" stroke="white"/>
<path d="M961.916 587.336L976.916 595.996L961.916 604.657V587.336Z" stroke="white"/>
<path d="M916.613 637.062L931.613 645.722L916.613 654.382V637.062Z" stroke="white"/>
<path d="M916.005 737.06L931.005 745.72L916.005 754.38V737.06Z" stroke="white"/>
<path d="M961.326 684.334L976.326 692.995L961.326 701.655V684.334Z" stroke="white"/>
<path d="M881.09 393.841L896.09 402.501L881.09 411.162V393.841Z" stroke="white"/>
<path d="M835.824 437.567L850.824 446.227L835.824 454.887V437.567Z" stroke="white"/>
<path d="M835.216 537.565L850.216 546.225L835.216 554.886V537.565Z" stroke="white"/>
<path d="M880.501 490.84L895.501 499.5L880.501 508.16V490.84Z" stroke="white"/>
<path d="M879.911 587.838L894.911 596.498L879.911 605.158V587.838Z" stroke="white"/>
<path d="M834.608 637.563L849.608 646.223L834.608 654.884V637.563Z" stroke="white"/>
<path d="M834 737.561L849 746.222L834 754.882V737.561Z" stroke="white"/>
<path d="M879.321 684.836L894.321 693.496L879.321 702.156V684.836Z" stroke="white"/>
</g>
<g clip-path="url(#clip3)">
<path d="M135.095 394.34L150.095 403L135.095 411.66V394.34Z" stroke="white"/>
<path d="M89.8281 438.065L104.828 446.726L89.8281 455.386V438.065Z" stroke="white"/>
<path d="M89.2202 538.064L104.22 546.724L89.2202 555.384V538.064Z" stroke="white"/>
<path d="M134.505 491.338L149.505 499.998L134.505 508.659V491.338Z" stroke="white"/>
<path d="M133.916 588.336L148.916 596.996L133.916 605.657V588.336Z" stroke="white"/>
<path d="M88.6125 638.062L103.613 646.722L88.6125 655.382V638.062Z" stroke="white"/>
<path d="M88.0046 738.06L103.005 746.72L88.0046 755.38V738.06Z" stroke="white"/>
<path d="M133.326 685.334L148.326 693.995L133.326 702.655V685.334Z" stroke="white"/>
<path d="M53.0903 394.841L68.0903 403.501L53.0903 412.162V394.841Z" stroke="white"/>
<path d="M7.82373 438.567L22.8237 447.227L7.82373 455.887L7.82373 438.567Z" stroke="white"/>
<path d="M7.21582 538.565L22.2158 547.225L7.21582 555.886L7.21582 538.565Z" stroke="white"/>
<path d="M52.5007 491.84L67.5007 500.5L52.5007 509.16V491.84Z" stroke="white"/>
<path d="M51.9111 588.838L66.9111 597.498L51.9111 606.158V588.838Z" stroke="white"/>
<path d="M6.60791 638.563L21.6079 647.223L6.60791 655.884L6.60791 638.563Z" stroke="white"/>
<path d="M6 738.561L21 747.222L6 755.882L6 738.561Z" stroke="white"/>
<path d="M51.3213 685.836L66.3213 694.496L51.3213 703.156V685.836Z" stroke="white"/>
<path d="M300.095 393.34L315.095 402L300.095 410.66V393.34Z" stroke="white"/>
<path d="M254.828 437.065L269.828 445.726L254.828 454.386V437.065Z" stroke="white"/>
<path d="M254.22 537.064L269.22 545.724L254.22 554.384V537.064Z" stroke="white"/>
<path d="M299.505 490.338L314.505 498.998L299.505 507.659V490.338Z" stroke="white"/>
<path d="M298.916 587.336L313.916 595.996L298.916 604.657V587.336Z" stroke="white"/>
<path d="M253.613 637.062L268.613 645.722L253.613 654.382V637.062Z" stroke="white"/>
<path d="M253.005 737.06L268.005 745.72L253.005 754.38V737.06Z" stroke="white"/>
<path d="M298.326 684.334L313.326 692.995L298.326 701.655V684.334Z" stroke="white"/>
<path d="M218.09 393.841L233.09 402.501L218.09 411.162V393.841Z" stroke="white"/>
<path d="M172.824 437.567L187.824 446.227L172.824 454.887V437.567Z" stroke="white"/>
<path d="M172.216 537.565L187.216 546.225L172.216 554.886V537.565Z" stroke="white"/>
<path d="M217.501 490.84L232.501 499.5L217.501 508.16V490.84Z" stroke="white"/>
<path d="M216.911 587.838L231.911 596.498L216.911 605.158V587.838Z" stroke="white"/>
<path d="M171.608 637.563L186.608 646.223L171.608 654.884V637.563Z" stroke="white"/>
<path d="M171 737.561L186 746.222L171 754.882V737.561Z" stroke="white"/>
<path d="M216.321 684.836L231.321 693.496L216.321 702.156V684.836Z" stroke="white"/>
<path d="M144.095 394.34L159.095 403L144.095 411.66V394.34Z" stroke="white"/>
<path d="M98.8281 438.065L113.828 446.726L98.8281 455.386V438.065Z" stroke="white"/>
<path d="M98.2202 538.064L113.22 546.724L98.2202 555.384V538.064Z" stroke="white"/>
<path d="M143.505 491.338L158.505 499.998L143.505 508.659V491.338Z" stroke="white"/>
<path d="M142.916 588.336L157.916 596.996L142.916 605.657V588.336Z" stroke="white"/>
<path d="M97.6125 638.062L112.613 646.722L97.6125 655.382V638.062Z" stroke="white"/>
<path d="M97.0046 738.06L112.005 746.72L97.0046 755.38V738.06Z" stroke="white"/>
<path d="M142.326 685.334L157.326 693.995L142.326 702.655V685.334Z" stroke="white"/>
<path d="M62.0903 394.841L77.0903 403.501L62.0903 412.162V394.841Z" stroke="white"/>
<path d="M16.8237 438.567L31.8237 447.227L16.8237 455.887L16.8237 438.567Z" stroke="white"/>
<path d="M16.2158 538.565L31.2158 547.225L16.2158 555.886L16.2158 538.565Z" stroke="white"/>
<path d="M61.5007 491.84L76.5007 500.5L61.5007 509.16V491.84Z" stroke="white"/>
<path d="M60.9111 588.838L75.9111 597.498L60.9111 606.158V588.838Z" stroke="white"/>
<path d="M15.6079 638.563L30.6079 647.223L15.6079 655.884L15.6079 638.563Z" stroke="white"/>
<path d="M15 738.561L30 747.222L15 755.882L15 738.561Z" stroke="white"/>
<path d="M60.3213 685.836L75.3213 694.496L60.3213 703.156V685.836Z" stroke="white"/>
<path d="M309.095 393.34L324.095 402L309.095 410.66V393.34Z" stroke="white"/>
<path d="M263.828 437.065L278.828 445.726L263.828 454.386V437.065Z" stroke="white"/>
<path d="M263.22 537.064L278.22 545.724L263.22 554.384V537.064Z" stroke="white"/>
<path d="M308.505 490.338L323.505 498.998L308.505 507.659V490.338Z" stroke="white"/>
<path d="M307.916 587.336L322.916 595.996L307.916 604.657V587.336Z" stroke="white"/>
<path d="M262.613 637.062L277.613 645.722L262.613 654.382V637.062Z" stroke="white"/>
<path d="M262.005 737.06L277.005 745.72L262.005 754.38V737.06Z" stroke="white"/>
<path d="M307.326 684.334L322.326 692.995L307.326 701.655V684.334Z" stroke="white"/>
<path d="M227.09 393.841L242.09 402.501L227.09 411.162V393.841Z" stroke="white"/>
<path d="M181.824 437.567L196.824 446.227L181.824 454.887V437.567Z" stroke="white"/>
<path d="M181.216 537.565L196.216 546.225L181.216 554.886V537.565Z" stroke="white"/>
<path d="M226.501 490.84L241.501 499.5L226.501 508.16V490.84Z" stroke="white"/>
<path d="M225.911 587.838L240.911 596.498L225.911 605.158V587.838Z" stroke="white"/>
<path d="M180.608 637.563L195.608 646.223L180.608 654.884V637.563Z" stroke="white"/>
<path d="M180 737.561L195 746.222L180 754.882V737.561Z" stroke="white"/>
<path d="M225.321 684.836L240.321 693.496L225.321 702.156V684.836Z" stroke="white"/>
</g>
<g clip-path="url(#clip4)">
<path d="M462.095 394.34L477.095 403L462.095 411.66V394.34Z" stroke="white"/>
<path d="M416.828 438.065L431.828 446.726L416.828 455.386V438.065Z" stroke="white"/>
<path d="M416.22 538.064L431.22 546.724L416.22 555.384V538.064Z" stroke="white"/>
<path d="M461.505 491.338L476.505 499.998L461.505 508.659V491.338Z" stroke="white"/>
<path d="M460.916 588.336L475.916 596.996L460.916 605.657V588.336Z" stroke="white"/>
<path d="M415.613 638.062L430.613 646.722L415.613 655.382V638.062Z" stroke="white"/>
<path d="M415.005 738.06L430.005 746.72L415.005 755.38V738.06Z" stroke="white"/>
<path d="M460.326 685.334L475.326 693.995L460.326 702.655V685.334Z" stroke="white"/>
<path d="M380.09 394.841L395.09 403.501L380.09 412.162V394.841Z" stroke="white"/>
<path d="M334.824 438.567L349.824 447.227L334.824 455.887V438.567Z" stroke="white"/>
<path d="M334.216 538.565L349.216 547.225L334.216 555.886V538.565Z" stroke="white"/>
<path d="M379.501 491.84L394.501 500.5L379.501 509.16V491.84Z" stroke="white"/>
<path d="M378.911 588.838L393.911 597.498L378.911 606.158V588.838Z" stroke="white"/>
<path d="M333.608 638.563L348.608 647.223L333.608 655.884V638.563Z" stroke="white"/>
<path d="M333 738.561L348 747.222L333 755.882V738.561Z" stroke="white"/>
<path d="M378.321 685.836L393.321 694.496L378.321 703.156V685.836Z" stroke="white"/>
<path d="M627.095 393.34L642.095 402L627.095 410.66V393.34Z" stroke="white"/>
<path d="M581.828 437.065L596.828 445.726L581.828 454.386V437.065Z" stroke="white"/>
<path d="M581.22 537.064L596.22 545.724L581.22 554.384V537.064Z" stroke="white"/>
<path d="M626.505 490.338L641.505 498.998L626.505 507.659V490.338Z" stroke="white"/>
<path d="M625.916 587.336L640.916 595.996L625.916 604.657V587.336Z" stroke="white"/>
<path d="M580.613 637.062L595.613 645.722L580.613 654.382V637.062Z" stroke="white"/>
<path d="M580.005 737.06L595.005 745.72L580.005 754.38V737.06Z" stroke="white"/>
<path d="M625.326 684.334L640.326 692.995L625.326 701.655V684.334Z" stroke="white"/>
<path d="M545.09 393.841L560.09 402.501L545.09 411.162V393.841Z" stroke="white"/>
<path d="M499.824 437.567L514.824 446.227L499.824 454.887V437.567Z" stroke="white"/>
<path d="M499.216 537.565L514.216 546.225L499.216 554.886V537.565Z" stroke="white"/>
<path d="M544.501 490.84L559.501 499.5L544.501 508.16V490.84Z" stroke="white"/>
<path d="M543.911 587.838L558.911 596.498L543.911 605.158V587.838Z" stroke="white"/>
<path d="M498.608 637.563L513.608 646.223L498.608 654.884V637.563Z" stroke="white"/>
<path d="M498 737.561L513 746.222L498 754.882V737.561Z" stroke="white"/>
<path d="M543.321 684.836L558.321 693.496L543.321 702.156V684.836Z" stroke="white"/>
<path d="M471.095 394.34L486.095 403L471.095 411.66V394.34Z" stroke="white"/>
<path d="M425.828 438.065L440.828 446.726L425.828 455.386V438.065Z" stroke="white"/>
<path d="M425.22 538.064L440.22 546.724L425.22 555.384V538.064Z" stroke="white"/>
<path d="M470.505 491.338L485.505 499.998L470.505 508.659V491.338Z" stroke="white"/>
<path d="M469.916 588.336L484.916 596.996L469.916 605.657V588.336Z" stroke="white"/>
<path d="M424.613 638.062L439.613 646.722L424.613 655.382V638.062Z" stroke="white"/>
<path d="M424.005 738.06L439.005 746.72L424.005 755.38V738.06Z" stroke="white"/>
<path d="M469.326 685.334L484.326 693.995L469.326 702.655V685.334Z" stroke="white"/>
<path d="M389.09 394.841L404.09 403.501L389.09 412.162V394.841Z" stroke="white"/>
<path d="M343.824 438.567L358.824 447.227L343.824 455.887V438.567Z" stroke="white"/>
<path d="M343.216 538.565L358.216 547.225L343.216 555.886V538.565Z" stroke="white"/>
<path d="M388.501 491.84L403.501 500.5L388.501 509.16V491.84Z" stroke="white"/>
<path d="M387.911 588.838L402.911 597.498L387.911 606.158V588.838Z" stroke="white"/>
<path d="M342.608 638.563L357.608 647.223L342.608 655.884V638.563Z" stroke="white"/>
<path d="M342 738.561L357 747.222L342 755.882V738.561Z" stroke="white"/>
<path d="M387.321 685.836L402.321 694.496L387.321 703.156V685.836Z" stroke="white"/>
<path d="M636.095 393.34L651.095 402L636.095 410.66V393.34Z" stroke="white"/>
<path d="M590.828 437.065L605.828 445.726L590.828 454.386V437.065Z" stroke="white"/>
<path d="M590.22 537.064L605.22 545.724L590.22 554.384V537.064Z" stroke="white"/>
<path d="M635.505 490.338L650.505 498.998L635.505 507.659V490.338Z" stroke="white"/>
<path d="M634.916 587.336L649.916 595.996L634.916 604.657V587.336Z" stroke="white"/>
<path d="M589.613 637.062L604.613 645.722L589.613 654.382V637.062Z" stroke="white"/>
<path d="M589.005 737.06L604.005 745.72L589.005 754.38V737.06Z" stroke="white"/>
<path d="M634.326 684.334L649.326 692.995L634.326 701.655V684.334Z" stroke="white"/>
<path d="M554.09 393.841L569.09 402.501L554.09 411.162V393.841Z" stroke="white"/>
<path d="M508.824 437.567L523.824 446.227L508.824 454.887V437.567Z" stroke="white"/>
<path d="M508.216 537.565L523.216 546.225L508.216 554.886V537.565Z" stroke="white"/>
<path d="M553.501 490.84L568.501 499.5L553.501 508.16V490.84Z" stroke="white"/>
<path d="M552.911 587.838L567.911 596.498L552.911 605.158V587.838Z" stroke="white"/>
<path d="M507.608 637.563L522.608 646.223L507.608 654.884V637.563Z" stroke="white"/>
<path d="M507 737.561L522 746.222L507 754.882V737.561Z" stroke="white"/>
<path d="M552.321 684.836L567.321 693.496L552.321 702.156V684.836Z" stroke="white"/>
</g>
<g clip-path="url(#clip5)">
<path d="M789.095 4.33975L804.095 13L789.095 21.6603V4.33975Z" stroke="white"/>
<path d="M743.828 48.0653L758.828 56.7256L743.828 65.3858V48.0653Z" stroke="white"/>
<path d="M743.22 148.064L758.22 156.724L743.22 165.384V148.064Z" stroke="white"/>
<path d="M788.505 101.338L803.505 109.998L788.505 118.659V101.338Z" stroke="white"/>
<path d="M787.916 198.336L802.916 206.996L787.916 215.657V198.336Z" stroke="white"/>
<path d="M742.613 248.062L757.613 256.722L742.613 265.382V248.062Z" stroke="white"/>
<path d="M742.005 348.06L757.005 356.72L742.005 365.38V348.06Z" stroke="white"/>
<path d="M787.326 295.334L802.326 303.995L787.326 312.655V295.334Z" stroke="white"/>
<path d="M707.09 4.84121L722.09 13.5015L707.09 22.1617V4.84121Z" stroke="white"/>
<path d="M661.824 48.5668L676.824 57.2271L661.824 65.8873V48.5668Z" stroke="white"/>
<path d="M661.216 148.565L676.216 157.225L661.216 165.886V148.565Z" stroke="white"/>
<path d="M706.501 101.84L721.501 110.5L706.501 119.16V101.84Z" stroke="white"/>
<path d="M705.911 198.838L720.911 207.498L705.911 216.158V198.838Z" stroke="white"/>
<path d="M660.608 248.563L675.608 257.223L660.608 265.884V248.563Z" stroke="white"/>
<path d="M660 348.561L675 357.222L660 365.882V348.561Z" stroke="white"/>
<path d="M705.321 295.836L720.321 304.496L705.321 313.156V295.836Z" stroke="white"/>
<path d="M954.095 3.33975L969.095 12L954.095 20.6603V3.33975Z" stroke="white"/>
<path d="M908.828 47.0653L923.828 55.7256L908.828 64.3858V47.0653Z" stroke="white"/>
<path d="M908.22 147.064L923.22 155.724L908.22 164.384V147.064Z" stroke="white"/>
<path d="M953.505 100.338L968.505 108.998L953.505 117.659V100.338Z" stroke="white"/>
<path d="M952.916 197.336L967.916 205.996L952.916 214.657V197.336Z" stroke="white"/>
<path d="M907.613 247.062L922.613 255.722L907.613 264.382V247.062Z" stroke="white"/>
<path d="M907.005 347.06L922.005 355.72L907.005 364.38V347.06Z" stroke="white"/>
<path d="M952.326 294.334L967.326 302.995L952.326 311.655V294.334Z" stroke="white"/>
<path d="M872.09 3.84121L887.09 12.5015L872.09 21.1617V3.84121Z" stroke="white"/>
<path d="M826.824 47.5668L841.824 56.2271L826.824 64.8873V47.5668Z" stroke="white"/>
<path d="M826.216 147.565L841.216 156.225L826.216 164.886V147.565Z" stroke="white"/>
<path d="M871.501 100.84L886.501 109.5L871.501 118.16V100.84Z" stroke="white"/>
<path d="M870.911 197.838L885.911 206.498L870.911 215.158V197.838Z" stroke="white"/>
<path d="M825.608 247.563L840.608 256.223L825.608 264.884V247.563Z" stroke="white"/>
<path d="M825 347.561L840 356.222L825 364.882V347.561Z" stroke="white"/>
<path d="M870.321 294.836L885.321 303.496L870.321 312.156V294.836Z" stroke="white"/>
<path d="M798.095 4.33975L813.095 13L798.095 21.6603V4.33975Z" stroke="white"/>
<path d="M752.828 48.0653L767.828 56.7256L752.828 65.3858V48.0653Z" stroke="white"/>
<path d="M752.22 148.064L767.22 156.724L752.22 165.384V148.064Z" stroke="white"/>
<path d="M797.505 101.338L812.505 109.998L797.505 118.659V101.338Z" stroke="white"/>
<path d="M796.916 198.336L811.916 206.996L796.916 215.657V198.336Z" stroke="white"/>
<path d="M751.613 248.062L766.613 256.722L751.613 265.382V248.062Z" stroke="white"/>
<path d="M751.005 348.06L766.005 356.72L751.005 365.38V348.06Z" stroke="white"/>
<path d="M796.326 295.334L811.326 303.995L796.326 312.655V295.334Z" stroke="white"/>
<path d="M716.09 4.84121L731.09 13.5015L716.09 22.1617V4.84121Z" stroke="white"/>
<path d="M670.824 48.5668L685.824 57.2271L670.824 65.8873V48.5668Z" stroke="white"/>
<path d="M670.216 148.565L685.216 157.225L670.216 165.886V148.565Z" stroke="white"/>
<path d="M715.501 101.84L730.501 110.5L715.501 119.16V101.84Z" stroke="white"/>
<path d="M714.911 198.838L729.911 207.498L714.911 216.158V198.838Z" stroke="white"/>
<path d="M669.608 248.563L684.608 257.223L669.608 265.884V248.563Z" stroke="white"/>
<path d="M669 348.561L684 357.222L669 365.882V348.561Z" stroke="white"/>
<path d="M714.321 295.836L729.321 304.496L714.321 313.156V295.836Z" stroke="white"/>
<path d="M963.095 3.33975L978.095 12L963.095 20.6603V3.33975Z" stroke="white"/>
<path d="M917.828 47.0653L932.828 55.7256L917.828 64.3858V47.0653Z" stroke="white"/>
<path d="M917.22 147.064L932.22 155.724L917.22 164.384V147.064Z" stroke="white"/>
<path d="M962.505 100.338L977.505 108.998L962.505 117.659V100.338Z" stroke="white"/>
<path d="M961.916 197.336L976.916 205.996L961.916 214.657V197.336Z" stroke="white"/>
<path d="M916.613 247.062L931.613 255.722L916.613 264.382V247.062Z" stroke="white"/>
<path d="M916.005 347.06L931.005 355.72L916.005 364.38V347.06Z" stroke="white"/>
<path d="M961.326 294.334L976.326 302.995L961.326 311.655V294.334Z" stroke="white"/>
<path d="M881.09 3.84121L896.09 12.5015L881.09 21.1617V3.84121Z" stroke="white"/>
<path d="M835.824 47.5668L850.824 56.2271L835.824 64.8873V47.5668Z" stroke="white"/>
<path d="M835.216 147.565L850.216 156.225L835.216 164.886V147.565Z" stroke="white"/>
<path d="M880.501 100.84L895.501 109.5L880.501 118.16V100.84Z" stroke="white"/>
<path d="M879.911 197.838L894.911 206.498L879.911 215.158V197.838Z" stroke="white"/>
<path d="M834.608 247.563L849.608 256.223L834.608 264.884V247.563Z" stroke="white"/>
<path d="M834 347.561L849 356.222L834 364.882V347.561Z" stroke="white"/>
<path d="M879.321 294.836L894.321 303.496L879.321 312.156V294.836Z" stroke="white"/>
</g>
<g clip-path="url(#clip6)">
<path d="M462.095 4.33975L477.095 13L462.095 21.6603V4.33975Z" stroke="white"/>
<path d="M416.828 48.0653L431.828 56.7256L416.828 65.3858V48.0653Z" stroke="white"/>
<path d="M416.22 148.064L431.22 156.724L416.22 165.384V148.064Z" stroke="white"/>
<path d="M461.505 101.338L476.505 109.998L461.505 118.659V101.338Z" stroke="white"/>
<path d="M460.916 198.336L475.916 206.996L460.916 215.657V198.336Z" stroke="white"/>
<path d="M415.613 248.062L430.613 256.722L415.613 265.382V248.062Z" stroke="white"/>
<path d="M415.005 348.06L430.005 356.72L415.005 365.38V348.06Z" stroke="white"/>
<path d="M460.326 295.334L475.326 303.995L460.326 312.655V295.334Z" stroke="white"/>
<path d="M380.09 4.84121L395.09 13.5015L380.09 22.1617V4.84121Z" stroke="white"/>
<path d="M334.824 48.5668L349.824 57.2271L334.824 65.8873V48.5668Z" stroke="white"/>
<path d="M334.216 148.565L349.216 157.225L334.216 165.886V148.565Z" stroke="white"/>
<path d="M379.501 101.84L394.501 110.5L379.501 119.16V101.84Z" stroke="white"/>
<path d="M378.911 198.838L393.911 207.498L378.911 216.158V198.838Z" stroke="white"/>
<path d="M333.608 248.563L348.608 257.223L333.608 265.884V248.563Z" stroke="white"/>
<path d="M333 348.561L348 357.222L333 365.882V348.561Z" stroke="white"/>
<path d="M378.321 295.836L393.321 304.496L378.321 313.156V295.836Z" stroke="white"/>
<path d="M627.095 3.33975L642.095 12L627.095 20.6603V3.33975Z" stroke="white"/>
<path d="M581.828 47.0653L596.828 55.7256L581.828 64.3858V47.0653Z" stroke="white"/>
<path d="M581.22 147.064L596.22 155.724L581.22 164.384V147.064Z" stroke="white"/>
<path d="M626.505 100.338L641.505 108.998L626.505 117.659V100.338Z" stroke="white"/>
<path d="M625.916 197.336L640.916 205.996L625.916 214.657V197.336Z" stroke="white"/>
<path d="M580.613 247.062L595.613 255.722L580.613 264.382V247.062Z" stroke="white"/>
<path d="M580.005 347.06L595.005 355.72L580.005 364.38V347.06Z" stroke="white"/>
<path d="M625.326 294.334L640.326 302.995L625.326 311.655V294.334Z" stroke="white"/>
<path d="M545.09 3.84121L560.09 12.5015L545.09 21.1617V3.84121Z" stroke="white"/>
<path d="M499.824 47.5668L514.824 56.2271L499.824 64.8873V47.5668Z" stroke="white"/>
<path d="M499.216 147.565L514.216 156.225L499.216 164.886V147.565Z" stroke="white"/>
<path d="M544.501 100.84L559.501 109.5L544.501 118.16V100.84Z" stroke="white"/>
<path d="M543.911 197.838L558.911 206.498L543.911 215.158V197.838Z" stroke="white"/>
<path d="M498.608 247.563L513.608 256.223L498.608 264.884V247.563Z" stroke="white"/>
<path d="M498 347.561L513 356.222L498 364.882V347.561Z" stroke="white"/>
<path d="M543.321 294.836L558.321 303.496L543.321 312.156V294.836Z" stroke="white"/>
<path d="M471.095 4.33975L486.095 13L471.095 21.6603V4.33975Z" stroke="white"/>
<path d="M425.828 48.0653L440.828 56.7256L425.828 65.3858V48.0653Z" stroke="white"/>
<path d="M425.22 148.064L440.22 156.724L425.22 165.384V148.064Z" stroke="white"/>
<path d="M470.505 101.338L485.505 109.998L470.505 118.659V101.338Z" stroke="white"/>
<path d="M469.916 198.336L484.916 206.996L469.916 215.657V198.336Z" stroke="white"/>
<path d="M424.613 248.062L439.613 256.722L424.613 265.382V248.062Z" stroke="white"/>
<path d="M424.005 348.06L439.005 356.72L424.005 365.38V348.06Z" stroke="white"/>
<path d="M469.326 295.334L484.326 303.995L469.326 312.655V295.334Z" stroke="white"/>
<path d="M389.09 4.84121L404.09 13.5015L389.09 22.1617V4.84121Z" stroke="white"/>
<path d="M343.824 48.5668L358.824 57.2271L343.824 65.8873V48.5668Z" stroke="white"/>
<path d="M343.216 148.565L358.216 157.225L343.216 165.886V148.565Z" stroke="white"/>
<path d="M388.501 101.84L403.501 110.5L388.501 119.16V101.84Z" stroke="white"/>
<path d="M387.911 198.838L402.911 207.498L387.911 216.158V198.838Z" stroke="white"/>
<path d="M342.608 248.563L357.608 257.223L342.608 265.884V248.563Z" stroke="white"/>
<path d="M342 348.561L357 357.222L342 365.882V348.561Z" stroke="white"/>
<path d="M387.321 295.836L402.321 304.496L387.321 313.156V295.836Z" stroke="white"/>
<path d="M636.095 3.33975L651.095 12L636.095 20.6603V3.33975Z" stroke="white"/>
<path d="M590.828 47.0653L605.828 55.7256L590.828 64.3858V47.0653Z" stroke="white"/>
<path d="M590.22 147.064L605.22 155.724L590.22 164.384V147.064Z" stroke="white"/>
<path d="M635.505 100.338L650.505 108.998L635.505 117.659V100.338Z" stroke="white"/>
<path d="M634.916 197.336L649.916 205.996L634.916 214.657V197.336Z" stroke="white"/>
<path d="M589.613 247.062L604.613 255.722L589.613 264.382V247.062Z" stroke="white"/>
<path d="M589.005 347.06L604.005 355.72L589.005 364.38V347.06Z" stroke="white"/>
<path d="M634.326 294.334L649.326 302.995L634.326 311.655V294.334Z" stroke="white"/>
<path d="M554.09 3.84121L569.09 12.5015L554.09 21.1617V3.84121Z" stroke="white"/>
<path d="M508.824 47.5668L523.824 56.2271L508.824 64.8873V47.5668Z" stroke="white"/>
<path d="M508.216 147.565L523.216 156.225L508.216 164.886V147.565Z" stroke="white"/>
<path d="M553.501 100.84L568.501 109.5L553.501 118.16V100.84Z" stroke="white"/>
<path d="M552.911 197.838L567.911 206.498L552.911 215.158V197.838Z" stroke="white"/>
<path d="M507.608 247.563L522.608 256.223L507.608 264.884V247.563Z" stroke="white"/>
<path d="M507 347.561L522 356.222L507 364.882V347.561Z" stroke="white"/>
<path d="M552.321 294.836L567.321 303.496L552.321 312.156V294.836Z" stroke="white"/>
</g>
<g clip-path="url(#clip7)">
<path d="M1116.09 4.33975L1131.09 13L1116.09 21.6603V4.33975Z" stroke="white"/>
<path d="M1070.83 48.0653L1085.83 56.7256L1070.83 65.3858V48.0653Z" stroke="white"/>
<path d="M1070.22 148.064L1085.22 156.724L1070.22 165.384V148.064Z" stroke="white"/>
<path d="M1115.51 101.338L1130.51 109.998L1115.51 118.659V101.338Z" stroke="white"/>
<path d="M1114.92 198.336L1129.92 206.996L1114.92 215.657V198.336Z" stroke="white"/>
<path d="M1069.61 248.062L1084.61 256.722L1069.61 265.382V248.062Z" stroke="white"/>
<path d="M1069 348.06L1084 356.72L1069 365.38V348.06Z" stroke="white"/>
<path d="M1114.33 295.334L1129.33 303.995L1114.33 312.655V295.334Z" stroke="white"/>
<path d="M1034.09 4.84121L1049.09 13.5015L1034.09 22.1617V4.84121Z" stroke="white"/>
<path d="M988.824 48.5668L1003.82 57.2271L988.824 65.8873V48.5668Z" stroke="white"/>
<path d="M988.216 148.565L1003.22 157.225L988.216 165.886V148.565Z" stroke="white"/>
<path d="M1033.5 101.84L1048.5 110.5L1033.5 119.16V101.84Z" stroke="white"/>
<path d="M1032.91 198.838L1047.91 207.498L1032.91 216.158V198.838Z" stroke="white"/>
<path d="M987.608 248.563L1002.61 257.223L987.608 265.884V248.563Z" stroke="white"/>
<path d="M987 348.561L1002 357.222L987 365.882V348.561Z" stroke="white"/>
<path d="M1032.32 295.836L1047.32 304.496L1032.32 313.156V295.836Z" stroke="white"/>
<path d="M1281.09 3.33975L1296.09 12L1281.09 20.6603V3.33975Z" stroke="white"/>
<path d="M1235.83 47.0653L1250.83 55.7256L1235.83 64.3858V47.0653Z" stroke="white"/>
<path d="M1235.22 147.064L1250.22 155.724L1235.22 164.384V147.064Z" stroke="white"/>
<path d="M1280.51 100.338L1295.51 108.998L1280.51 117.659V100.338Z" stroke="white"/>
<path d="M1279.92 197.336L1294.92 205.996L1279.92 214.657V197.336Z" stroke="white"/>
<path d="M1234.61 247.062L1249.61 255.722L1234.61 264.382V247.062Z" stroke="white"/>
<path d="M1234 347.06L1249 355.72L1234 364.38V347.06Z" stroke="white"/>
<path d="M1279.33 294.334L1294.33 302.995L1279.33 311.655V294.334Z" stroke="white"/>
<path d="M1199.09 3.84121L1214.09 12.5015L1199.09 21.1617V3.84121Z" stroke="white"/>
<path d="M1153.82 47.5668L1168.82 56.2271L1153.82 64.8873V47.5668Z" stroke="white"/>
<path d="M1153.22 147.565L1168.22 156.225L1153.22 164.886V147.565Z" stroke="white"/>
<path d="M1198.5 100.84L1213.5 109.5L1198.5 118.16V100.84Z" stroke="white"/>
<path d="M1197.91 197.838L1212.91 206.498L1197.91 215.158V197.838Z" stroke="white"/>
<path d="M1152.61 247.563L1167.61 256.223L1152.61 264.884V247.563Z" stroke="white"/>
<path d="M1152 347.561L1167 356.222L1152 364.882V347.561Z" stroke="white"/>
<path d="M1197.32 294.836L1212.32 303.496L1197.32 312.156V294.836Z" stroke="white"/>
<path d="M1125.09 4.33975L1140.09 13L1125.09 21.6603V4.33975Z" stroke="white"/>
<path d="M1079.83 48.0653L1094.83 56.7256L1079.83 65.3858V48.0653Z" stroke="white"/>
<path d="M1079.22 148.064L1094.22 156.724L1079.22 165.384V148.064Z" stroke="white"/>
<path d="M1124.51 101.338L1139.51 109.998L1124.51 118.659V101.338Z" stroke="white"/>
<path d="M1123.92 198.336L1138.92 206.996L1123.92 215.657V198.336Z" stroke="white"/>
<path d="M1078.61 248.062L1093.61 256.722L1078.61 265.382V248.062Z" stroke="white"/>
<path d="M1078 348.06L1093 356.72L1078 365.38V348.06Z" stroke="white"/>
<path d="M1123.33 295.334L1138.33 303.995L1123.33 312.655V295.334Z" stroke="white"/>
<path d="M1043.09 4.84121L1058.09 13.5015L1043.09 22.1617V4.84121Z" stroke="white"/>
<path d="M997.824 48.5668L1012.82 57.2271L997.824 65.8873V48.5668Z" stroke="white"/>
<path d="M997.216 148.565L1012.22 157.225L997.216 165.886V148.565Z" stroke="white"/>
<path d="M1042.5 101.84L1057.5 110.5L1042.5 119.16V101.84Z" stroke="white"/>
<path d="M1041.91 198.838L1056.91 207.498L1041.91 216.158V198.838Z" stroke="white"/>
<path d="M996.608 248.563L1011.61 257.223L996.608 265.884V248.563Z" stroke="white"/>
<path d="M996 348.561L1011 357.222L996 365.882V348.561Z" stroke="white"/>
<path d="M1041.32 295.836L1056.32 304.496L1041.32 313.156V295.836Z" stroke="white"/>
<path d="M1290.09 3.33975L1305.09 12L1290.09 20.6603V3.33975Z" stroke="white"/>
<path d="M1244.83 47.0653L1259.83 55.7256L1244.83 64.3858V47.0653Z" stroke="white"/>
<path d="M1244.22 147.064L1259.22 155.724L1244.22 164.384V147.064Z" stroke="white"/>
<path d="M1289.51 100.338L1304.51 108.998L1289.51 117.659V100.338Z" stroke="white"/>
<path d="M1288.92 197.336L1303.92 205.996L1288.92 214.657V197.336Z" stroke="white"/>
<path d="M1243.61 247.062L1258.61 255.722L1243.61 264.382V247.062Z" stroke="white"/>
<path d="M1243 347.06L1258 355.72L1243 364.38V347.06Z" stroke="white"/>
<path d="M1288.33 294.334L1303.33 302.995L1288.33 311.655V294.334Z" stroke="white"/>
<path d="M1208.09 3.84121L1223.09 12.5015L1208.09 21.1617V3.84121Z" stroke="white"/>
<path d="M1162.82 47.5668L1177.82 56.2271L1162.82 64.8873V47.5668Z" stroke="white"/>
<path d="M1162.22 147.565L1177.22 156.225L1162.22 164.886V147.565Z" stroke="white"/>
<path d="M1207.5 100.84L1222.5 109.5L1207.5 118.16V100.84Z" stroke="white"/>
<path d="M1206.91 197.838L1221.91 206.498L1206.91 215.158V197.838Z" stroke="white"/>
<path d="M1161.61 247.563L1176.61 256.223L1161.61 264.884V247.563Z" stroke="white"/>
<path d="M1161 347.561L1176 356.222L1161 364.882V347.561Z" stroke="white"/>
<path d="M1206.32 294.836L1221.32 303.496L1206.32 312.156V294.836Z" stroke="white"/>
</g>
<g clip-path="url(#clip8)">
<path d="M1116.09 394.34L1131.09 403L1116.09 411.66V394.34Z" stroke="white"/>
<path d="M1070.83 438.065L1085.83 446.726L1070.83 455.386V438.065Z" stroke="white"/>
<path d="M1070.22 538.064L1085.22 546.724L1070.22 555.384V538.064Z" stroke="white"/>
<path d="M1115.51 491.338L1130.51 499.998L1115.51 508.659V491.338Z" stroke="white"/>
<path d="M1114.92 588.336L1129.92 596.996L1114.92 605.657V588.336Z" stroke="white"/>
<path d="M1069.61 638.062L1084.61 646.722L1069.61 655.382V638.062Z" stroke="white"/>
<path d="M1069 738.06L1084 746.72L1069 755.38V738.06Z" stroke="white"/>
<path d="M1114.33 685.334L1129.33 693.995L1114.33 702.655V685.334Z" stroke="white"/>
<path d="M1034.09 394.841L1049.09 403.501L1034.09 412.162V394.841Z" stroke="white"/>
<path d="M988.824 438.567L1003.82 447.227L988.824 455.887V438.567Z" stroke="white"/>
<path d="M988.216 538.565L1003.22 547.225L988.216 555.886V538.565Z" stroke="white"/>
<path d="M1033.5 491.84L1048.5 500.5L1033.5 509.16V491.84Z" stroke="white"/>
<path d="M1032.91 588.838L1047.91 597.498L1032.91 606.158V588.838Z" stroke="white"/>
<path d="M987.608 638.563L1002.61 647.223L987.608 655.884V638.563Z" stroke="white"/>
<path d="M987 738.561L1002 747.222L987 755.882V738.561Z" stroke="white"/>
<path d="M1032.32 685.836L1047.32 694.496L1032.32 703.156V685.836Z" stroke="white"/>
<path d="M1281.09 393.34L1296.09 402L1281.09 410.66V393.34Z" stroke="white"/>
<path d="M1235.83 437.065L1250.83 445.726L1235.83 454.386V437.065Z" stroke="white"/>
<path d="M1235.22 537.064L1250.22 545.724L1235.22 554.384V537.064Z" stroke="white"/>
<path d="M1280.51 490.338L1295.51 498.998L1280.51 507.659V490.338Z" stroke="white"/>
<path d="M1279.92 587.336L1294.92 595.996L1279.92 604.657V587.336Z" stroke="white"/>
<path d="M1234.61 637.062L1249.61 645.722L1234.61 654.382V637.062Z" stroke="white"/>
<path d="M1234 737.06L1249 745.72L1234 754.38V737.06Z" stroke="white"/>
<path d="M1279.33 684.334L1294.33 692.995L1279.33 701.655V684.334Z" stroke="white"/>
<path d="M1199.09 393.841L1214.09 402.501L1199.09 411.162V393.841Z" stroke="white"/>
<path d="M1153.82 437.567L1168.82 446.227L1153.82 454.887V437.567Z" stroke="white"/>
<path d="M1153.22 537.565L1168.22 546.225L1153.22 554.886V537.565Z" stroke="white"/>
<path d="M1198.5 490.84L1213.5 499.5L1198.5 508.16V490.84Z" stroke="white"/>
<path d="M1197.91 587.838L1212.91 596.498L1197.91 605.158V587.838Z" stroke="white"/>
<path d="M1152.61 637.563L1167.61 646.223L1152.61 654.884V637.563Z" stroke="white"/>
<path d="M1152 737.561L1167 746.222L1152 754.882V737.561Z" stroke="white"/>
<path d="M1197.32 684.836L1212.32 693.496L1197.32 702.156V684.836Z" stroke="white"/>
<path d="M1125.09 394.34L1140.09 403L1125.09 411.66V394.34Z" stroke="white"/>
<path d="M1079.83 438.065L1094.83 446.726L1079.83 455.386V438.065Z" stroke="white"/>
<path d="M1079.22 538.064L1094.22 546.724L1079.22 555.384V538.064Z" stroke="white"/>
<path d="M1124.51 491.338L1139.51 499.998L1124.51 508.659V491.338Z" stroke="white"/>
<path d="M1123.92 588.336L1138.92 596.996L1123.92 605.657V588.336Z" stroke="white"/>
<path d="M1078.61 638.062L1093.61 646.722L1078.61 655.382V638.062Z" stroke="white"/>
<path d="M1078 738.06L1093 746.72L1078 755.38V738.06Z" stroke="white"/>
<path d="M1123.33 685.334L1138.33 693.995L1123.33 702.655V685.334Z" stroke="white"/>
<path d="M1043.09 394.841L1058.09 403.501L1043.09 412.162V394.841Z" stroke="white"/>
<path d="M997.824 438.567L1012.82 447.227L997.824 455.887V438.567Z" stroke="white"/>
<path d="M997.216 538.565L1012.22 547.225L997.216 555.886V538.565Z" stroke="white"/>
<path d="M1042.5 491.84L1057.5 500.5L1042.5 509.16V491.84Z" stroke="white"/>
<path d="M1041.91 588.838L1056.91 597.498L1041.91 606.158V588.838Z" stroke="white"/>
<path d="M996.608 638.563L1011.61 647.223L996.608 655.884V638.563Z" stroke="white"/>
<path d="M996 738.561L1011 747.222L996 755.882V738.561Z" stroke="white"/>
<path d="M1041.32 685.836L1056.32 694.496L1041.32 703.156V685.836Z" stroke="white"/>
<path d="M1290.09 393.34L1305.09 402L1290.09 410.66V393.34Z" stroke="white"/>
<path d="M1244.83 437.065L1259.83 445.726L1244.83 454.386V437.065Z" stroke="white"/>
<path d="M1244.22 537.064L1259.22 545.724L1244.22 554.384V537.064Z" stroke="white"/>
<path d="M1289.51 490.338L1304.51 498.998L1289.51 507.659V490.338Z" stroke="white"/>
<path d="M1288.92 587.336L1303.92 595.996L1288.92 604.657V587.336Z" stroke="white"/>
<path d="M1243.61 637.062L1258.61 645.722L1243.61 654.382V637.062Z" stroke="white"/>
<path d="M1243 737.06L1258 745.72L1243 754.38V737.06Z" stroke="white"/>
<path d="M1288.33 684.334L1303.33 692.995L1288.33 701.655V684.334Z" stroke="white"/>
<path d="M1208.09 393.841L1223.09 402.501L1208.09 411.162V393.841Z" stroke="white"/>
<path d="M1162.82 437.567L1177.82 446.227L1162.82 454.887V437.567Z" stroke="white"/>
<path d="M1162.22 537.565L1177.22 546.225L1162.22 554.886V537.565Z" stroke="white"/>
<path d="M1207.5 490.84L1222.5 499.5L1207.5 508.16V490.84Z" stroke="white"/>
<path d="M1206.91 587.838L1221.91 596.498L1206.91 605.158V587.838Z" stroke="white"/>
<path d="M1161.61 637.563L1176.61 646.223L1161.61 654.884V637.563Z" stroke="white"/>
<path d="M1161 737.561L1176 746.222L1161 754.882V737.561Z" stroke="white"/>
<path d="M1206.32 684.836L1221.32 693.496L1206.32 702.156V684.836Z" stroke="white"/>
</g>
<g clip-path="url(#clip9)">
<path d="M1406.83 48.0653L1421.83 56.7256L1406.83 65.3858V48.0653Z" stroke="white"/>
<path d="M1406.22 148.064L1421.22 156.724L1406.22 165.384V148.064Z" stroke="white"/>
<path d="M1405.61 248.062L1420.61 256.722L1405.61 265.382V248.062Z" stroke="white"/>
<path d="M1405 348.06L1420 356.72L1405 365.38V348.06Z" stroke="white"/>
<path d="M1370.09 4.84121L1385.09 13.5015L1370.09 22.1617V4.84121Z" stroke="white"/>
<path d="M1324.82 48.5668L1339.82 57.2271L1324.82 65.8873V48.5668Z" stroke="white"/>
<path d="M1324.22 148.565L1339.22 157.225L1324.22 165.886V148.565Z" stroke="white"/>
<path d="M1369.5 101.84L1384.5 110.5L1369.5 119.16V101.84Z" stroke="white"/>
<path d="M1368.91 198.838L1383.91 207.498L1368.91 216.158V198.838Z" stroke="white"/>
<path d="M1323.61 248.563L1338.61 257.223L1323.61 265.884V248.563Z" stroke="white"/>
<path d="M1323 348.561L1338 357.222L1323 365.882V348.561Z" stroke="white"/>
<path d="M1368.32 295.836L1383.32 304.496L1368.32 313.156V295.836Z" stroke="white"/>
<path d="M1415.83 48.0653L1430.83 56.7256L1415.83 65.3858V48.0653Z" stroke="white"/>
<path d="M1415.22 148.064L1430.22 156.724L1415.22 165.384V148.064Z" stroke="white"/>
<path d="M1414.61 248.062L1429.61 256.722L1414.61 265.382V248.062Z" stroke="white"/>
<path d="M1414 348.06L1429 356.72L1414 365.38V348.06Z" stroke="white"/>
<path d="M1379.09 4.84121L1394.09 13.5015L1379.09 22.1617V4.84121Z" stroke="white"/>
<path d="M1333.82 48.5668L1348.82 57.2271L1333.82 65.8873V48.5668Z" stroke="white"/>
<path d="M1333.22 148.565L1348.22 157.225L1333.22 165.886V148.565Z" stroke="white"/>
<path d="M1378.5 101.84L1393.5 110.5L1378.5 119.16V101.84Z" stroke="white"/>
<path d="M1377.91 198.838L1392.91 207.498L1377.91 216.158V198.838Z" stroke="white"/>
<path d="M1332.61 248.563L1347.61 257.223L1332.61 265.884V248.563Z" stroke="white"/>
<path d="M1332 348.561L1347 357.222L1332 365.882V348.561Z" stroke="white"/>
<path d="M1377.32 295.836L1392.32 304.496L1377.32 313.156V295.836Z" stroke="white"/>
</g>
<g clip-path="url(#clip10)">
<path d="M1407.83 437.065L1422.83 445.726L1407.83 454.386V437.065Z" stroke="white"/>
<path d="M1407.22 537.064L1422.22 545.724L1407.22 554.384V537.064Z" stroke="white"/>
<path d="M1406.61 637.062L1421.61 645.722L1406.61 654.382V637.062Z" stroke="white"/>
<path d="M1406 737.06L1421 745.72L1406 754.38V737.06Z" stroke="white"/>
<path d="M1371.09 393.841L1386.09 402.501L1371.09 411.162V393.841Z" stroke="white"/>
<path d="M1325.82 437.567L1340.82 446.227L1325.82 454.887V437.567Z" stroke="white"/>
<path d="M1325.22 537.565L1340.22 546.225L1325.22 554.886V537.565Z" stroke="white"/>
<path d="M1370.5 490.84L1385.5 499.5L1370.5 508.16V490.84Z" stroke="white"/>
<path d="M1369.91 587.838L1384.91 596.498L1369.91 605.158V587.838Z" stroke="white"/>
<path d="M1324.61 637.563L1339.61 646.223L1324.61 654.884V637.563Z" stroke="white"/>
<path d="M1324 737.561L1339 746.222L1324 754.882V737.561Z" stroke="white"/>
<path d="M1369.32 684.836L1384.32 693.496L1369.32 702.156V684.836Z" stroke="white"/>
<path d="M1416.83 437.065L1431.83 445.726L1416.83 454.386V437.065Z" stroke="white"/>
<path d="M1416.22 537.064L1431.22 545.724L1416.22 554.384V537.064Z" stroke="white"/>
<path d="M1415.61 637.062L1430.61 645.722L1415.61 654.382V637.062Z" stroke="white"/>
<path d="M1415 737.06L1430 745.72L1415 754.38V737.06Z" stroke="white"/>
<path d="M1380.09 393.841L1395.09 402.501L1380.09 411.162V393.841Z" stroke="white"/>
<path d="M1334.82 437.567L1349.82 446.227L1334.82 454.887V437.567Z" stroke="white"/>
<path d="M1334.22 537.565L1349.22 546.225L1334.22 554.886V537.565Z" stroke="white"/>
<path d="M1379.5 490.84L1394.5 499.5L1379.5 508.16V490.84Z" stroke="white"/>
<path d="M1378.91 587.838L1393.91 596.498L1378.91 605.158V587.838Z" stroke="white"/>
<path d="M1333.61 637.563L1348.61 646.223L1333.61 654.884V637.563Z" stroke="white"/>
<path d="M1333 737.561L1348 746.222L1333 754.882V737.561Z" stroke="white"/>
<path d="M1378.32 684.836L1393.32 693.496L1378.32 702.156V684.836Z" stroke="white"/>
</g>
</g>
<defs>
<clipPath id="clip0">
<rect width="1440" height="783" fill="white"/>
</clipPath>
<clipPath id="clip1">
<rect width="327" height="390" fill="white" transform="translate(0 -7)"/>
</clipPath>
<clipPath id="clip2">
<rect width="327" height="390" fill="white" transform="translate(654 383)"/>
</clipPath>
<clipPath id="clip3">
<rect width="327" height="390" fill="white" transform="translate(0 383)"/>
</clipPath>
<clipPath id="clip4">
<rect width="327" height="390" fill="white" transform="translate(327 383)"/>
</clipPath>
<clipPath id="clip5">
<rect width="327" height="390" fill="white" transform="translate(654 -7)"/>
</clipPath>
<clipPath id="clip6">
<rect width="327" height="390" fill="white" transform="translate(327 -7)"/>
</clipPath>
<clipPath id="clip7">
<rect width="327" height="390" fill="white" transform="translate(981 -7)"/>
</clipPath>
<clipPath id="clip8">
<rect width="327" height="390" fill="white" transform="translate(981 383)"/>
</clipPath>
<clipPath id="clip9">
<rect width="167" height="390" fill="white" transform="translate(1317 -7)"/>
</clipPath>
<clipPath id="clip10">
<rect width="165" height="390" fill="white" transform="translate(1318 382)"/>
</clipPath>
</defs>
</svg>
