<svg width="402" height="58" viewBox="0 0 402 58" fill="none" xmlns="http://www.w3.org/2000/svg">
<g filter="url(#filter0_i)">
<path fill-rule="evenodd" clip-rule="evenodd" d="M58 0H0V58H58V0ZM97.58 43V14.08H93.52C93.28 14.08 93.0733 14.0867 92.9 14.1C92.7267 14.1133 92.5667 14.1467 92.42 14.2C92.2867 14.2533 92.16 14.34 92.04 14.46C91.92 14.58 91.8067 14.74 91.7 14.94L83.16 30.96C82.9333 31.3867 82.72 31.8333 82.52 32.3C82.32 32.7533 82.1267 33.2267 81.94 33.72C81.7533 33.24 81.56 32.7733 81.36 32.32C81.1733 31.8667 80.9667 31.4267 80.74 31L72.08 14.94C71.9733 14.74 71.86 14.58 71.74 14.46C71.6333 14.34 71.5067 14.2533 71.36 14.2C71.2267 14.1467 71.0733 14.1133 70.9 14.1C70.7267 14.0867 70.52 14.08 70.28 14.08H66.22V43H70.96V24.32C70.96 23.96 70.9467 23.5667 70.92 23.14C70.8933 22.7133 70.86 22.28 70.82 21.84L79.66 38.32C80.0733 39.1067 80.7067 39.5 81.56 39.5H82.32C83.1733 39.5 83.8067 39.1067 84.22 38.32L92.96 21.9C92.88 22.7667 92.84 23.5733 92.84 24.32V43H97.58ZM130.553 34.44C131.259 32.6267 131.613 30.66 131.613 28.54C131.613 27.1267 131.452 25.78 131.133 24.5C130.826 23.22 130.372 22.0333 129.773 20.94C129.173 19.8467 128.439 18.86 127.573 17.98C126.719 17.0867 125.753 16.3333 124.673 15.72C123.592 15.0933 122.406 14.6133 121.113 14.28C119.819 13.9333 118.439 13.76 116.973 13.76C114.786 13.76 112.793 14.1333 110.993 14.88C109.192 15.6133 107.646 16.64 106.353 17.96C105.073 19.28 104.079 20.8467 103.372 22.66C102.666 24.46 102.312 26.42 102.312 28.54C102.312 30.66 102.666 32.6267 103.372 34.44C104.079 36.24 105.073 37.8 106.353 39.12C107.646 40.44 109.192 41.4733 110.993 42.22C112.793 42.9533 114.786 43.32 116.973 43.32C119.173 43.32 121.173 42.9533 122.973 42.22C124.772 41.4733 126.312 40.44 127.592 39.12C128.872 37.8 129.859 36.24 130.553 34.44ZM125.473 24.28C125.899 25.5333 126.113 26.9533 126.113 28.54C126.113 30.1267 125.899 31.5533 125.473 32.82C125.046 34.0733 124.439 35.14 123.653 36.02C122.866 36.8867 121.906 37.5533 120.772 38.02C119.653 38.4867 118.386 38.72 116.973 38.72C115.559 38.72 114.286 38.4867 113.153 38.02C112.033 37.5533 111.073 36.8867 110.272 36.02C109.486 35.14 108.879 34.0733 108.452 32.82C108.026 31.5533 107.812 30.1267 107.812 28.54C107.812 26.9533 108.026 25.5333 108.452 24.28C108.879 23.0133 109.486 21.94 110.272 21.06C111.073 20.18 112.033 19.5067 113.153 19.04C114.286 18.5733 115.559 18.34 116.973 18.34C118.386 18.34 119.653 18.5733 120.772 19.04C121.906 19.5067 122.866 20.18 123.653 21.06C124.439 21.94 125.046 23.0133 125.473 24.28ZM143.64 43H148.5L160.18 14.08H155.84C155.386 14.08 155 14.2067 154.68 14.46C154.373 14.7133 154.166 14.9933 154.06 15.3L147.28 32.94C147.053 33.5133 146.846 34.1467 146.66 34.84C146.473 35.52 146.3 36.2333 146.14 36.98C145.953 36.2333 145.753 35.52 145.54 34.84C145.34 34.1467 145.126 33.5133 144.9 32.94L138.08 15.3C137.933 14.94 137.713 14.6467 137.42 14.42C137.126 14.1933 136.746 14.08 136.28 14.08H131.96L143.64 43ZM168.573 26.38V18.36H181.413V14.08H163.173V43H181.413V38.7H168.573V30.52H178.693V26.38H168.573ZM216.548 36.52C216.321 36.2933 216.061 36.18 215.768 36.18C215.607 36.18 215.454 36.22 215.307 36.3C215.161 36.3667 215.021 36.46 214.887 36.58C214.447 36.98 214.001 37.32 213.548 37.6C213.107 37.8667 212.634 38.0867 212.128 38.26C211.634 38.4333 211.087 38.56 210.488 38.64C209.901 38.72 209.241 38.76 208.508 38.76C207.281 38.76 206.134 38.5333 205.068 38.08C204.001 37.6133 203.074 36.9467 202.288 36.08C201.501 35.2133 200.874 34.1467 200.408 32.88C199.954 31.6133 199.727 30.1667 199.727 28.54C199.727 26.9267 199.941 25.4933 200.367 24.24C200.794 22.9733 201.394 21.9067 202.167 21.04C202.941 20.16 203.861 19.4933 204.928 19.04C206.008 18.5733 207.194 18.34 208.488 18.34C209.247 18.34 209.914 18.4 210.488 18.52C211.074 18.6267 211.587 18.7667 212.027 18.94C212.467 19.1 212.854 19.28 213.188 19.48C213.521 19.68 213.814 19.8667 214.068 20.04C214.321 20.2 214.554 20.34 214.768 20.46C214.981 20.5667 215.188 20.62 215.387 20.62C215.681 20.62 215.908 20.56 216.068 20.44C216.241 20.32 216.381 20.18 216.488 20.02L218.288 17.52C217.141 16.4 215.747 15.4933 214.107 14.8C212.481 14.1067 210.614 13.76 208.508 13.76C206.387 13.76 204.454 14.1267 202.708 14.86C200.961 15.58 199.454 16.5933 198.188 17.9C196.934 19.2067 195.961 20.7667 195.268 22.58C194.574 24.38 194.227 26.3667 194.227 28.54C194.227 30.6867 194.548 32.6667 195.188 34.48C195.841 36.2933 196.774 37.8533 197.988 39.16C199.201 40.4667 200.661 41.4867 202.368 42.22C204.087 42.9533 206.021 43.32 208.167 43.32C210.568 43.32 212.621 42.9333 214.327 42.16C216.048 41.3867 217.494 40.2733 218.667 38.82L216.548 36.52ZM248.248 34.44C248.954 32.6267 249.308 30.66 249.308 28.54C249.308 27.1267 249.148 25.78 248.828 24.5C248.521 23.22 248.068 22.0333 247.468 20.94C246.868 19.8467 246.134 18.86 245.268 17.98C244.414 17.0867 243.448 16.3333 242.368 15.72C241.288 15.0933 240.101 14.6133 238.808 14.28C237.514 13.9333 236.134 13.76 234.668 13.76C232.481 13.76 230.488 14.1333 228.688 14.88C226.888 15.6133 225.341 16.64 224.048 17.96C222.768 19.28 221.774 20.8467 221.068 22.66C220.361 24.46 220.008 26.42 220.008 28.54C220.008 30.66 220.361 32.6267 221.068 34.44C221.774 36.24 222.768 37.8 224.048 39.12C225.341 40.44 226.888 41.4733 228.688 42.22C230.488 42.9533 232.481 43.32 234.668 43.32C236.868 43.32 238.868 42.9533 240.668 42.22C242.468 41.4733 244.008 40.44 245.288 39.12C246.568 37.8 247.554 36.24 248.248 34.44ZM243.168 24.28C243.594 25.5333 243.808 26.9533 243.808 28.54C243.808 30.1267 243.594 31.5533 243.168 32.82C242.741 34.0733 242.134 35.14 241.348 36.02C240.561 36.8867 239.601 37.5533 238.468 38.02C237.348 38.4867 236.081 38.72 234.668 38.72C233.254 38.72 231.981 38.4867 230.848 38.02C229.728 37.5533 228.768 36.8867 227.968 36.02C227.181 35.14 226.574 34.0733 226.148 32.82C225.721 31.5533 225.508 30.1267 225.508 28.54C225.508 26.9533 225.721 25.5333 226.148 24.28C226.574 23.0133 227.181 21.94 227.968 21.06C228.768 20.18 229.728 19.5067 230.848 19.04C231.981 18.5733 233.254 18.34 234.668 18.34C236.081 18.34 237.348 18.5733 238.468 19.04C239.601 19.5067 240.561 20.18 241.348 21.06C242.134 21.94 242.741 23.0133 243.168 24.28ZM275.652 43H278.413V14.08H273.672V31.66C273.672 32.0467 273.686 32.4667 273.712 32.92C273.739 33.3733 273.772 33.8333 273.812 34.3L258.652 14.94C258.506 14.7533 258.372 14.6067 258.253 14.5C258.133 14.38 258.006 14.2933 257.872 14.24C257.753 14.1733 257.606 14.1333 257.432 14.12C257.272 14.0933 257.079 14.08 256.853 14.08H254.033V43H258.772V25.24C258.772 24.4933 258.733 23.68 258.652 22.8L273.753 42.08C274.019 42.4133 274.293 42.6533 274.573 42.8C274.866 42.9333 275.226 43 275.652 43ZM299.733 19.96C299.919 19.8267 300.093 19.62 300.253 19.34L301.593 16.8C300.579 15.84 299.353 15.0933 297.913 14.56C296.473 14.0267 294.899 13.76 293.193 13.76C291.673 13.76 290.326 13.9933 289.153 14.46C287.979 14.9267 286.993 15.5467 286.193 16.32C285.393 17.0933 284.779 17.98 284.353 18.98C283.939 19.98 283.733 21.0067 283.733 22.06C283.733 23.38 283.919 24.4933 284.293 25.4C284.679 26.2933 285.186 27.04 285.813 27.64C286.439 28.24 287.153 28.7267 287.953 29.1C288.753 29.4733 289.566 29.7933 290.393 30.06C291.219 30.3267 292.033 30.5733 292.833 30.8C293.633 31.0267 294.346 31.3067 294.973 31.64C295.599 31.96 296.099 32.36 296.473 32.84C296.859 33.32 297.053 33.94 297.053 34.7C297.053 36.06 296.633 37.1067 295.793 37.84C294.953 38.56 293.766 38.92 292.233 38.92C291.233 38.92 290.373 38.7867 289.653 38.52C288.946 38.24 288.326 37.9333 287.793 37.6C287.259 37.2667 286.799 36.9667 286.413 36.7C286.026 36.42 285.666 36.28 285.333 36.28C285.093 36.28 284.866 36.3467 284.653 36.48C284.439 36.6 284.266 36.7533 284.133 36.94L282.553 39.52C283.113 40.0933 283.753 40.6133 284.473 41.08C285.193 41.5467 285.959 41.9467 286.773 42.28C287.599 42.6133 288.459 42.8667 289.353 43.04C290.246 43.2267 291.153 43.32 292.073 43.32C293.673 43.32 295.093 43.08 296.333 42.6C297.573 42.1067 298.619 41.44 299.473 40.6C300.339 39.7467 300.993 38.7533 301.433 37.62C301.886 36.4733 302.113 35.2467 302.113 33.94C302.113 32.74 301.919 31.72 301.533 30.88C301.159 30.04 300.659 29.3333 300.033 28.76C299.406 28.1733 298.693 27.6933 297.893 27.32C297.093 26.9333 296.273 26.6 295.433 26.32C294.593 26.0267 293.773 25.7533 292.973 25.5C292.173 25.2467 291.459 24.96 290.833 24.64C290.206 24.32 289.699 23.9333 289.313 23.48C288.939 23.0267 288.753 22.46 288.753 21.78C288.753 21.2467 288.846 20.76 289.033 20.32C289.219 19.8667 289.499 19.48 289.873 19.16C290.259 18.84 290.733 18.5933 291.293 18.42C291.853 18.2333 292.506 18.14 293.253 18.14C294.079 18.14 294.793 18.2467 295.393 18.46C296.006 18.66 296.539 18.8867 296.993 19.14C297.446 19.3933 297.833 19.6267 298.153 19.84C298.486 20.04 298.793 20.14 299.073 20.14C299.339 20.14 299.559 20.08 299.733 19.96ZM321.226 38.14C320.413 38.4867 319.486 38.66 318.446 38.66C317.406 38.66 316.473 38.4867 315.646 38.14C314.833 37.7933 314.139 37.3067 313.566 36.68C313.006 36.04 312.573 35.2733 312.266 34.38C311.973 33.4867 311.826 32.4867 311.826 31.38V14.08H306.446V31.4C306.446 33.12 306.719 34.7133 307.266 36.18C307.826 37.6333 308.619 38.8933 309.646 39.96C310.686 41.0133 311.946 41.84 313.426 42.44C314.906 43.0267 316.579 43.32 318.446 43.32C320.299 43.32 321.966 43.0267 323.446 42.44C324.926 41.84 326.179 41.0133 327.206 39.96C328.246 38.8933 329.039 37.6333 329.586 36.18C330.146 34.7133 330.426 33.12 330.426 31.4V14.08H325.046V31.4C325.046 32.5067 324.893 33.5067 324.586 34.4C324.293 35.2933 323.866 36.0533 323.306 36.68C322.746 37.3067 322.053 37.7933 321.226 38.14ZM363.113 43H367.853V14.08H363.793C363.553 14.08 363.347 14.0867 363.173 14.1C363 14.1133 362.84 14.1467 362.693 14.2C362.56 14.2533 362.433 14.34 362.313 14.46C362.193 14.58 362.08 14.74 361.973 14.94L353.433 30.96C353.207 31.3867 352.993 31.8333 352.793 32.3C352.593 32.7533 352.4 33.2267 352.213 33.72C352.027 33.24 351.833 32.7733 351.633 32.32C351.447 31.8667 351.24 31.4267 351.013 31L342.353 14.94C342.247 14.74 342.133 14.58 342.013 14.46C341.907 14.34 341.78 14.2533 341.633 14.2C341.5 14.1467 341.347 14.1133 341.173 14.1C341 14.0867 340.793 14.08 340.553 14.08H336.493V43H341.233V24.32C341.233 23.96 341.22 23.5667 341.193 23.14C341.167 22.7133 341.133 22.28 341.093 21.84L349.933 38.32C350.347 39.1067 350.98 39.5 351.833 39.5H352.593C353.447 39.5 354.08 39.1067 354.493 38.32L363.233 21.9C363.153 22.7667 363.113 23.5733 363.113 24.32V43ZM400.826 34.44C401.533 32.6267 401.886 30.66 401.886 28.54C401.886 27.1267 401.726 25.78 401.406 24.5C401.099 23.22 400.646 22.0333 400.046 20.94C399.446 19.8467 398.713 18.86 397.846 17.98C396.993 17.0867 396.026 16.3333 394.946 15.72C393.866 15.0933 392.679 14.6133 391.386 14.28C390.093 13.9333 388.713 13.76 387.246 13.76C385.059 13.76 383.066 14.1333 381.266 14.88C379.466 15.6133 377.919 16.64 376.626 17.96C375.346 19.28 374.353 20.8467 373.646 22.66C372.939 24.46 372.586 26.42 372.586 28.54C372.586 30.66 372.939 32.6267 373.646 34.44C374.353 36.24 375.346 37.8 376.626 39.12C377.919 40.44 379.466 41.4733 381.266 42.22C383.066 42.9533 385.059 43.32 387.246 43.32C389.446 43.32 391.446 42.9533 393.246 42.22C395.046 41.4733 396.586 40.44 397.866 39.12C399.146 37.8 400.133 36.24 400.826 34.44ZM395.746 24.28C396.173 25.5333 396.386 26.9533 396.386 28.54C396.386 30.1267 396.173 31.5533 395.746 32.82C395.319 34.0733 394.713 35.14 393.926 36.02C393.139 36.8867 392.179 37.5533 391.046 38.02C389.926 38.4867 388.659 38.72 387.246 38.72C385.833 38.72 384.559 38.4867 383.426 38.02C382.306 37.5533 381.346 36.8867 380.546 36.02C379.759 35.14 379.153 34.0733 378.726 32.82C378.299 31.5533 378.086 30.1267 378.086 28.54C378.086 26.9533 378.299 25.5333 378.726 24.28C379.153 23.0133 379.759 21.94 380.546 21.06C381.346 20.18 382.306 19.5067 383.426 19.04C384.559 18.5733 385.833 18.34 387.246 18.34C388.659 18.34 389.926 18.5733 391.046 19.04C392.179 19.5067 393.139 20.18 393.926 21.06C394.713 21.94 395.319 23.0133 395.746 24.28Z" fill="#014AAD"/>
</g>
<defs>
<filter id="filter0_i" x="0" y="0" width="401.886" height="62" filterUnits="userSpaceOnUse" color-interpolation-filters="sRGB">
<feFlood flood-opacity="0" result="BackgroundImageFix"/>
<feBlend mode="normal" in="SourceGraphic" in2="BackgroundImageFix" result="shape"/>
<feColorMatrix in="SourceAlpha" type="matrix" values="0 0 0 0 0 0 0 0 0 0 0 0 0 0 0 0 0 0 127 0" result="hardAlpha"/>
<feOffset dy="4"/>
<feGaussianBlur stdDeviation="2"/>
<feComposite in2="hardAlpha" operator="arithmetic" k2="-1" k3="1"/>
<feColorMatrix type="matrix" values="0 0 0 0 0 0 0 0 0 0 0 0 0 0 0 0 0 0 0.25 0"/>
<feBlend mode="normal" in2="shape" result="effect1_innerShadow"/>
</filter>
</defs>
</svg>
